<?xml version="1.0" encoding="utf-8"?>
<!-- Generator: Adobe Illustrator 16.0.0, SVG Export Plug-In . SVG Version: 6.00 Build 0)  -->
<!DOCTYPE svg PUBLIC "-//W3C//DTD SVG 1.1//EN" "http://www.w3.org/Graphics/SVG/1.1/DTD/svg11.dtd">
<svg version="1.1" id="Calque_1" xmlns="http://www.w3.org/2000/svg" xmlns:xlink="http://www.w3.org/1999/xlink" x="0px" y="0px"
	 width="300px" height="300px" viewBox="0 0 300 300" enable-background="new 0 0 300 300" xml:space="preserve">
<g>
	<path d="M193.476,129.904c5.081-5.081,8.228-12.092,8.228-19.825c0-15.469-12.585-28.052-28.053-28.052
		c-7.735,0-14.746,3.147-19.825,8.225l12.429,12.428c1.894-1.894,4.512-3.068,7.396-3.068c5.772,0,10.469,4.696,10.469,10.467
		c0,2.886-1.176,5.5-3.072,7.397L193.476,129.904z"/>
	<path d="M288.309,22.091L275.873,9.655L219.74,65.789c-2.258-2.547-4.799-5.066-7.652-7.556
		c-11.7-10.206-25.541-15.598-40.02-15.598c-33.223,0-65.826,29.257-65.826,59.069c0,12.424,1.845,22.168,3.744,30.258
		l15.141-13.856c-0.778-4.86-1.299-10.19-1.299-16.402c0-18.287,22.711-41.484,48.241-41.484c10.313,0,19.891,3.788,28.46,11.265
		c31.527,27.503,13.285,58.643-18.142,103.013c-12.153,17.157-16.531,34.065-20.049,47.651c-5.544,21.415-8.168,28.188-26.37,28.188
		c-8.402,0-11.643-3.078-13.349-5.396c-1.943-2.635-3.132-6.104-3.768-10.092h-17.614c0.863,7.775,3.059,14.871,7.223,20.523
		c4.219,5.726,12.416,12.551,27.508,12.551c32.682,0,38.126-21.03,43.393-41.367c3.319-12.83,7.088-27.369,17.372-41.893
		c22.319-31.507,49.075-69.316,32.942-103.939L288.309,22.091z"/>
	<polygon points="138.324,147.203 14.191,271.337 26.629,283.771 151.588,158.812 	"/>
</g>
</svg>
