<?xml version="1.0" encoding="utf-8"?>
<!-- Generator: Adobe Illustrator 16.0.0, SVG Export Plug-In . SVG Version: 6.00 Build 0)  -->
<!DOCTYPE svg PUBLIC "-//W3C//DTD SVG 1.1//EN" "http://www.w3.org/Graphics/SVG/1.1/DTD/svg11.dtd">
<svg version="1.1" id="logo" xmlns="http://www.w3.org/2000/svg" xmlns:xlink="http://www.w3.org/1999/xlink" x="0px" y="0px"
	 width="600px" height="600px" viewBox="0 0 600 600" enable-background="new 0 0 600 600" xml:space="preserve">
<path id="fond" fill="#993399" d="M299.998,0C134.318,0,0,134.313,0,299.999C0,465.685,134.318,600,299.998,600
	C465.695,600,600,465.685,600,299.999C600,134.313,465.695,0,299.998,0z M357.063,300.438h-36.98c0,59,0,133,0,133h-56
	c0,0,0-73,0-133h-26v-47h26v-30.804c0-21.786,10.449-55.832,55.934-55.832l41.066,0.161v45.475c0,0-24.786,0-29.62,0
	c-4.841,0-11.38,2.593-11.38,12.977v28.023h41.815L357.063,300.438z"/>
</svg>
