<?xml version="1.0" encoding="utf-8"?>
<!-- Generator: Adobe Illustrator 16.0.0, SVG Export Plug-In . SVG Version: 6.00 Build 0)  -->
<!DOCTYPE svg PUBLIC "-//W3C//DTD SVG 1.1//EN" "http://www.w3.org/Graphics/SVG/1.1/DTD/svg11.dtd">
<svg version="1.1" id="Blue" xmlns="http://www.w3.org/2000/svg" xmlns:xlink="http://www.w3.org/1999/xlink" x="0px" y="0px"
	 width="266.893px" height="266.895px" viewBox="0 0 266.893 266.895" enable-background="new 0 0 266.893 266.895"
	 xml:space="preserve">
<path id="Blue_1_" fill="#3C5A99" d="M252.163,266.895c8.134,0,14.73-6.596,14.73-14.73V14.73c0-8.137-6.596-14.73-14.73-14.73
	H14.73C6.593,0,0,6.594,0,14.73v237.434c0,8.135,6.593,14.73,14.73,14.73H252.163z"/>
<path id="f" fill="#FFFFFF" d="M184.151,266.895V163.539h34.693l5.194-40.28h-39.887V97.542c0-11.662,3.238-19.609,19.962-19.609
	l21.33-0.01V41.897c-3.69-0.49-16.351-1.587-31.081-1.587c-30.752,0-51.806,18.771-51.806,53.244v29.705h-34.781v40.28h34.781
	v103.355H184.151z"/>
</svg>
