<?xml version="1.0" encoding="utf-8"?>
<!-- Generator: Adobe Illustrator 16.0.0, SVG Export Plug-In . SVG Version: 6.00 Build 0)  -->
<!DOCTYPE svg PUBLIC "-//W3C//DTD SVG 1.1//EN" "http://www.w3.org/Graphics/SVG/1.1/DTD/svg11.dtd">
<svg version="1.1" id="Calque_1" xmlns="http://www.w3.org/2000/svg" xmlns:xlink="http://www.w3.org/1999/xlink" x="0px" y="0px"
	 width="3456.83px" height="1398.835px" viewBox="0 0 3456.83 1398.835" enable-background="new 0 0 3456.83 1398.835"
	 xml:space="preserve">
<g id="cercle">
</g>
<g id="Calque_3">
	<g>
		<path fill="#993399" d="M1503.741,551.2h3.744l43.058-246.647c1.558-8.11,2.34-15.752,2.34-22.933h-4.68
			c-20.286,0-35.965,4.841-47.036,14.509c-11.079,9.675-16.615,21.69-16.615,36.038c0,6.552,1.64,11.781,4.914,15.679
			c3.276,3.905,7.876,5.85,13.807,5.85l7.957-1.404c0.308,0.936,0.469,2.34,0.469,4.212c0,6.552-3.203,12.563-9.596,18.019
			c-6.397,5.463-15.057,8.19-25.975,8.19c-14.978,0-26.911-4.285-35.804-12.871c-8.894-8.578-13.339-19.891-13.339-33.932
			c0-23.708,10.449-42.978,31.356-57.801c20.9-14.816,49.765-22.231,86.584-22.231h32.762c16.85,0,27.768,3.905,32.763,11.701
			c4.987,7.803,5.77,20.907,2.34,39.314l-43.526,248.051c30.575,1.873,59.278,2.809,86.116,2.809
			c15.599,0,29.171-1.009,40.718-3.042c11.54-2.025,19.189-3.978,22.935-5.85l5.615-3.276c3.431,3.744,5.148,10.458,5.148,20.125
			c0,12.483-4.446,22.465-13.339,29.954c-8.894,7.489-22.077,11.231-39.548,11.231c-17.479,0-35.885-2.179-55.228-6.552
			c-19.35-4.366-34.327-8.73-44.931-13.104l-16.381-6.554c-1.564,1.873-3.744,4.294-6.553,7.255
			c-2.809,2.969-8.893,6.866-18.253,11.7c-9.359,4.842-19.188,7.255-29.484,7.255c-11.861,0-20.907-2.729-27.146-8.19
			c-6.245-5.456-9.359-11.935-9.359-19.423c0-7.795,2.962-14.428,8.893-19.892C1484.391,553.936,1492.814,551.2,1503.741,551.2z"/>
		<path fill="#993399" d="M1894.677,435.729c4.417,8.838,7.73,18.168,9.941,27.994c2.206,9.827,3.313,19.235,3.313,28.224
			c0,8.991-0.993,18.054-2.971,27.194c-1.981,9.142-4.839,17.979-8.569,26.51c-3.734,8.533-8.307,16.532-13.712,23.994
			c-5.409,7.468-11.579,13.94-18.511,19.426c-6.935,5.484-14.512,9.826-22.738,13.025c-8.228,3.199-16.989,4.799-26.28,4.799
			c-13.408,0-24.873-2.932-34.394-8.798c-9.522-5.862-17.333-13.519-23.424-22.967c-6.096-9.445-10.552-20.11-13.369-31.994
			c-2.82-11.883-4.228-23.917-4.228-36.106c0-16.757,2.514-32.411,7.541-46.962c5.026-14.548,12.227-27.195,21.596-37.937
			c9.37-10.741,20.832-19.196,34.394-25.366c13.559-6.17,28.795-9.255,45.705-9.255c14.473,0,28.03,2.25,40.679,6.741
			c12.644,4.496,24.487,10.512,35.536,18.054c11.043,7.542,21.326,16.19,30.851,25.938c9.52,9.751,18.396,19.807,26.623,30.166
			l-4.342,32.222c-4.113-5.484-9.678-11.426-16.684-17.825c-7.009-6.398-14.437-12.644-22.28-18.738
			c-7.849-6.093-15.579-11.845-23.195-17.253c-7.62-5.406-14.168-9.941-19.653-13.599L1894.677,435.729z M1824.063,563.018
			c5.179,0,10.205-2.628,15.084-7.884c4.873-5.256,9.141-11.883,12.797-19.882c3.655-7.999,6.588-16.833,8.799-26.509
			c2.206-9.673,3.313-18.929,3.313-27.767c0-7.006-0.536-13.519-1.6-19.538c-1.068-6.018-2.668-11.233-4.8-15.654
			c-2.136-4.417-4.877-7.919-8.228-10.512c-3.353-2.589-7.392-3.886-12.112-3.886c-6.248,0-12.189,2.667-17.823,7.999
			c-5.64,5.334-10.592,12.151-14.854,20.453c-4.268,8.305-7.62,17.482-10.056,27.537c-2.438,10.055-3.656,19.732-3.656,29.023
			c0,6.398,0.607,12.419,1.828,18.054c1.218,5.638,3.121,10.551,5.714,14.74c2.588,4.191,6.017,7.542,10.283,10.055
			C1813.015,561.761,1818.12,563.018,1824.063,563.018z"/>
		<path fill="#993399" d="M2092.811,558.219c-5.484,5.028-12.306,10.398-20.453,16.111c-8.151,5.713-16.95,10.969-26.396,15.768
			c-9.448,4.8-19.082,8.798-28.909,11.998c-9.826,3.199-19.16,4.8-27.994,4.8c-7.923,0-14.59-1.104-19.995-3.313
			c-5.409-2.207-9.791-5.292-13.141-9.255c-3.354-3.96-5.753-8.798-7.198-14.512c-1.449-5.714-2.172-11.998-2.172-18.854
			c0-9.598,1.104-20.757,3.313-33.479c2.207-12.72,4.913-25.898,8.113-39.535c3.198-13.633,6.588-27.23,10.169-40.792
			c3.578-13.559,6.74-26.053,9.483-37.479c1.063-3.96,3.199-7.349,6.398-10.169c3.198-2.817,6.815-5.103,10.854-6.856
			c4.035-1.75,8.229-3.046,12.569-3.885c4.342-0.835,8.263-1.257,11.77-1.257c6.398,0,10.74,1.182,13.025,3.542
			c2.285,2.364,3.428,5.524,3.428,9.484c0,3.353-0.764,8.191-2.285,14.511c-1.523,6.324-3.428,13.483-5.713,21.482
			c-2.285,7.998-4.724,16.606-7.313,25.822c-2.594,9.221-5.028,18.437-7.313,27.652c-2.285,9.219-4.19,18.207-5.713,26.966
			c-1.524,8.764-2.285,16.647-2.285,23.653c0,6.854,0.761,12.305,2.285,16.339c1.521,4.039,4.646,6.056,9.369,6.056
			c5.485,0,11.577-1.902,18.282-5.713c6.702-3.806,13.482-8.416,20.339-13.825c6.856-5.406,13.56-11.006,20.11-16.798
			c6.549-5.788,12.341-10.74,17.367-14.854v46.391H2092.811z M1990.658,323.294c0-3.503,0.761-7.463,2.285-11.883
			c1.521-4.417,3.999-8.57,7.428-12.455c3.428-3.885,7.998-7.159,13.711-9.827c5.714-2.664,12.833-3.999,21.367-3.999
			c5.331,0,10.358,0.61,15.083,1.828c4.721,1.221,8.834,3.085,12.341,5.599c3.503,2.514,6.284,5.827,8.341,9.941
			c2.058,4.113,3.085,8.991,3.085,14.625c0,5.181-0.839,10.208-2.514,15.083c-1.678,4.877-4.342,9.219-7.998,13.026
			c-3.656,3.81-8.268,6.895-13.826,9.255c-5.563,2.364-12.227,3.542-19.996,3.542c-13.407,0-23.31-3.16-29.708-9.484
			C1993.857,342.226,1990.658,333.806,1990.658,323.294z"/>
		<path fill="#993399" d="M2069.271,519.141c8.529-7.313,15.461-13.404,20.795-18.281c5.332-4.874,9.901-9.331,13.713-13.369
			c3.806-4.035,7.272-8.112,10.396-12.227c3.121-4.112,6.816-8.986,11.084-14.625c4.264-5.635,9.444-12.529,15.54-20.682
			c6.091-8.148,14.015-18.318,23.767-30.508c1.979-2.742,4.188-5.406,6.627-7.999c2.437-2.589,5.143-4.913,8.112-6.97
			c2.972-2.057,6.245-3.731,9.827-5.028c3.578-1.292,7.577-1.942,11.997-1.942c7.313,0,12.948,0.8,16.911,2.399
			c3.96,1.6,6.855,3.542,8.685,5.828c1.828,2.285,2.893,4.685,3.199,7.198c0.304,2.514,0.457,4.685,0.457,6.513
			c0,3.656-1.45,7.695-4.342,12.112c-2.896,4.42-6.097,8.685-9.6,12.798c-3.506,4.113-6.819,7.884-9.939,11.312
			c-3.125,3.428-4.914,5.981-5.371,7.656c0,4.724,0.343,9.026,1.028,12.912c0.686,3.885,1.601,7.694,2.742,11.427
			c1.144,3.735,2.32,7.695,3.542,11.883c1.218,4.192,2.399,9.027,3.542,14.511c1.144,5.485,2.057,11.81,2.742,18.969
			c0.686,7.162,1.028,15.617,1.028,25.365c5.483-3.655,11.387-6.97,17.711-9.94c6.319-2.972,12.912-6.057,19.768-9.255
			c6.855-3.199,13.9-6.741,21.14-10.626c7.233-3.886,14.512-8.569,21.823-14.055l0.229,51.19
			c-9.448,7.313-20.378,14.168-32.794,20.567c-12.419,6.398-25.444,12.036-39.077,16.91c-13.637,4.878-27.424,8.724-41.363,11.541
			s-27.158,4.229-39.648,4.229c-8.991,0-17.368-0.839-25.139-2.514c-7.771-1.676-14.591-4.304-20.453-7.885
			c-5.866-3.577-10.626-8.263-14.282-14.054c-3.656-5.788-5.867-12.797-6.628-21.023c-2.135,0.457-4.229,0.764-6.284,0.914
			c-2.057,0.152-4.077,0.229-6.056,0.229c-2.438,0-4.725-0.075-6.855-0.229c-2.136-0.15-3.964-0.722-5.484-1.715
			c-1.524-0.988-2.742-2.589-3.656-4.799c-0.914-2.207-1.371-5.37-1.371-9.483c0-3.656,0.914-7.046,2.742-10.169
			c1.828-3.121,3.96-5.902,6.398-8.342c2.436-2.436,4.873-4.57,7.313-6.398C2066.222,521.655,2068.051,520.208,2069.271,519.141z
			 M2098.521,548.392c1.83,0,3.847,1.144,6.058,3.429c2.206,2.284,4.76,4.799,7.655,7.541c2.893,2.743,6.244,5.256,10.056,7.542
			c3.806,2.285,8.147,3.428,13.024,3.428c5.942,0,10.855-0.989,14.74-2.971c3.885-1.979,6.97-4.606,9.255-7.885
			c2.286-3.273,3.886-7.084,4.8-11.426s1.371-8.873,1.371-13.597c0-4.113-0.269-8.302-0.8-12.569
			c-0.536-4.264-1.222-8.341-2.057-12.226c-0.841-3.885-1.754-7.542-2.743-10.969c-0.992-3.429-1.867-6.36-2.628-8.799
			L2098.521,548.392z"/>
		<path fill="#993399" d="M2413.204,558.219c-5.483,5.028-12.305,10.398-20.453,16.111c-8.15,5.713-16.95,10.969-26.395,15.768
			c-9.448,4.8-19.082,8.798-28.909,11.998c-9.826,3.199-19.16,4.8-27.994,4.8c-7.923,0-14.59-1.104-19.996-3.313
			c-5.408-2.207-9.791-5.292-13.14-9.255c-3.354-3.96-5.753-8.798-7.199-14.512c-1.448-5.714-2.171-11.998-2.171-18.854
			c0-9.598,1.104-20.757,3.313-33.479c2.207-12.72,4.913-25.898,8.112-39.535c3.199-13.633,6.588-27.23,10.17-40.792
			c3.577-13.559,6.74-26.053,9.483-37.479c1.063-3.96,3.199-7.349,6.397-10.169c3.199-2.817,6.816-5.103,10.854-6.856
			c4.035-1.75,8.228-3.046,12.569-3.885c4.342-0.835,8.263-1.257,11.77-1.257c6.398,0,10.74,1.182,13.025,3.542
			c2.285,2.364,3.428,5.524,3.428,9.484c0,3.353-0.764,8.191-2.285,14.511c-1.523,6.324-3.428,13.483-5.713,21.482
			c-2.285,7.998-4.724,16.606-7.313,25.822c-2.594,9.221-5.028,18.437-7.313,27.652c-2.284,9.219-4.19,18.207-5.713,26.966
			c-1.523,8.764-2.284,16.647-2.284,23.653c0,6.854,0.761,12.305,2.284,16.339c1.521,4.039,4.646,6.056,9.369,6.056
			c5.485,0,11.577-1.902,18.282-5.713c6.701-3.806,13.482-8.416,20.339-13.825c6.856-5.406,13.56-11.006,20.11-16.798
			c6.549-5.788,12.341-10.74,17.367-14.854v46.391H2413.204z M2311.053,323.294c0-3.503,0.762-7.463,2.285-11.883
			c1.521-4.417,3.999-8.57,7.428-12.455c3.428-3.885,7.998-7.159,13.711-9.827c5.715-2.664,12.833-3.999,21.367-3.999
			c5.331,0,10.359,0.61,15.083,1.828c4.721,1.221,8.834,3.085,12.341,5.599c3.503,2.514,6.284,5.827,8.342,9.941
			c2.057,4.113,3.084,8.991,3.084,14.625c0,5.181-0.839,10.208-2.514,15.083c-1.678,4.877-4.342,9.219-7.998,13.026
			c-3.656,3.81-8.267,6.895-13.826,9.255c-5.563,2.364-12.227,3.542-19.996,3.542c-13.407,0-23.31-3.16-29.707-9.484
			C2314.252,342.226,2311.053,333.806,2311.053,323.294z"/>
		<path fill="#993399" d="M2396.979,559.133c0-6.702,0.379-14.511,1.144-23.424c0.761-8.913,1.789-18.318,3.086-28.223
			c1.292-9.901,2.817-19.996,4.57-30.28c1.749-10.284,3.616-20.071,5.599-29.365c1.979-9.291,3.96-17.825,5.941-25.595
			c1.979-7.77,3.96-14.168,5.941-19.196c1.219-3.349,2.436-6.017,3.656-7.998c1.218-1.979,2.628-3.542,4.229-4.685
			c1.6-1.143,3.577-1.903,5.94-2.285c2.36-0.378,5.292-0.571,8.799-0.571c3.96,0,7.045,0.193,9.255,0.571
			c2.207,0.382,3.846,1.296,4.913,2.742c1.064,1.45,1.716,3.542,1.943,6.285c0.229,2.742,0.343,6.477,0.343,11.198
			c0,5.638,0,12.455,0,20.453c0,7.998,0.149,15.882,0.457,23.652h2.514c3.047-6.092,6.475-12.912,10.283-20.453
			c3.807-7.542,8.229-14.586,13.255-21.139c5.027-6.549,10.74-12.073,17.14-16.568c6.398-4.492,13.786-6.741,22.168-6.741
			c2.892,0,5.713,0.496,8.455,1.485c2.741,0.993,5.142,2.399,7.198,4.228c2.058,1.829,3.691,4.078,4.913,6.742
			c1.219,2.667,1.828,5.677,1.828,9.027c0,2.592-0.382,6.209-1.143,10.855c-0.766,4.649-1.601,9.523-2.515,14.625
			c-0.914,5.106-1.754,10.056-2.514,14.854c-0.765,4.799-1.144,8.798-1.144,11.998c0,5.483,0.531,10.055,1.601,13.711
			c1.063,3.657,2.474,6.592,4.228,8.798c1.75,2.21,3.731,3.771,5.941,4.685c2.207,0.914,4.531,1.371,6.97,1.371
			c6.856,0,13.94-1.521,21.253-4.57c7.313-3.046,14.017-6.475,20.11-10.284c7.159-4.417,14.169-9.444,21.024-15.083l-3.429,53.475
			c-3.963,2.592-8.455,5.485-13.481,8.685c-5.028,3.198-10.398,6.209-16.111,9.026c-5.713,2.821-11.655,5.182-17.825,7.084
			c-6.17,1.907-12.455,2.857-18.854,2.857c-11.427,0-20.646-2.321-27.651-6.97c-7.01-4.646-12.568-10.741-16.683-18.282
			s-7.163-15.997-9.143-25.366c-1.98-9.37-3.581-18.854-4.799-28.452h-3.656l-40.905,114.035c-2.136,5.942-4.152,10.855-6.057,14.74
			c-1.906,3.885-3.85,7.049-5.828,9.484c-1.98,2.438-4.112,4.152-6.397,5.142c-2.285,0.993-4.799,1.485-7.541,1.485
			c-6.249,0-11.276-1.332-15.083-3.999c-3.811-2.664-6.741-6.246-8.798-10.741c-2.058-4.492-3.429-9.599-4.114-15.313
			C2397.321,571.131,2396.979,565.228,2396.979,559.133z"/>
		<path fill="#993399" d="M2587.113,519.141c8.529-7.313,15.461-13.404,20.796-18.281c5.331-4.874,9.9-9.331,13.712-13.369
			c3.806-4.035,7.272-8.112,10.396-12.227c3.121-4.112,6.816-8.986,11.084-14.625c4.264-5.635,9.444-12.529,15.54-20.682
			c6.091-8.148,14.015-18.318,23.768-30.508c1.978-2.742,4.188-5.406,6.627-7.999c2.436-2.589,5.142-4.913,8.112-6.97
			c2.972-2.057,6.244-3.731,9.826-5.028c3.578-1.292,7.577-1.942,11.997-1.942c7.313,0,12.948,0.8,16.911,2.399
			c3.96,1.6,6.855,3.542,8.686,5.828c1.827,2.285,2.892,4.685,3.198,7.198c0.304,2.514,0.457,4.685,0.457,6.513
			c0,3.656-1.45,7.695-4.342,12.112c-2.896,4.42-6.096,8.685-9.599,12.798c-3.507,4.113-6.82,7.884-9.94,11.312
			c-3.125,3.428-4.914,5.981-5.371,7.656c0,4.724,0.343,9.026,1.028,12.912c0.686,3.885,1.601,7.694,2.742,11.427
			c1.144,3.735,2.32,7.695,3.543,11.883c1.218,4.192,2.398,9.027,3.541,14.511c1.144,5.485,2.058,11.81,2.742,18.969
			c0.687,7.162,1.028,15.617,1.028,25.365c5.483-3.655,11.387-6.97,17.711-9.94c6.32-2.972,12.912-6.057,19.769-9.255
			c6.854-3.199,13.899-6.741,21.139-10.626c7.233-3.886,14.512-8.569,21.824-14.055l0.229,51.19
			c-9.448,7.313-20.378,14.168-32.794,20.567c-12.419,6.398-25.444,12.036-39.077,16.91c-13.637,4.878-27.424,8.724-41.363,11.541
			s-27.158,4.229-39.648,4.229c-8.991,0-17.368-0.839-25.139-2.514c-7.771-1.676-14.59-4.304-20.453-7.885
			c-5.866-3.577-10.626-8.263-14.282-14.054c-3.655-5.788-5.866-12.797-6.628-21.023c-2.135,0.457-4.228,0.764-6.283,0.914
			c-2.058,0.152-4.078,0.229-6.057,0.229c-2.438,0-4.725-0.075-6.854-0.229c-2.136-0.15-3.964-0.722-5.485-1.715
			c-1.523-0.988-2.742-2.589-3.656-4.799c-0.914-2.207-1.371-5.37-1.371-9.483c0-3.656,0.914-7.046,2.742-10.169
			c1.828-3.121,3.96-5.902,6.398-8.342c2.436-2.436,4.873-4.57,7.313-6.398C2584.063,521.655,2585.893,520.208,2587.113,519.141z
			 M2616.364,548.392c1.829,0,3.846,1.144,6.057,3.429c2.206,2.284,4.76,4.799,7.655,7.541c2.893,2.743,6.245,5.256,10.056,7.542
			c3.806,2.285,8.147,3.428,13.024,3.428c5.942,0,10.855-0.989,14.74-2.971c3.885-1.979,6.971-4.606,9.255-7.885
			c2.286-3.273,3.886-7.084,4.8-11.426s1.371-8.873,1.371-13.597c0-4.113-0.269-8.302-0.8-12.569
			c-0.536-4.264-1.222-8.341-2.057-12.226c-0.84-3.885-1.754-7.542-2.743-10.969c-0.992-3.429-1.867-6.36-2.628-8.799
			L2616.364,548.392z"/>
		<path fill="#993399" d="M1558.836,1025.062c15.386,0,29.401-1.521,42.049-4.57c12.645-3.045,24.109-7.158,34.395-12.34
			c10.283-5.178,19.574-11.234,27.88-18.168c8.302-6.932,15.804-14.357,22.51-22.281l2.515,52.332
			c-4.879,5.941-10.78,11.695-17.712,17.254c-6.934,5.564-14.511,10.439-22.737,14.625c-8.228,4.193-16.875,7.543-25.938,10.057
			c-9.065,2.516-18.018,3.771-26.852,3.771c-1.068,0-2.399-0.15-4-0.457c-1.601-0.303-4.382-0.836-8.341-1.6
			c-3.965-0.762-9.639-1.789-17.025-3.084c-7.393-1.293-17.407-2.857-30.051-4.688v4.113c0,27.727-2.325,52.904-6.972,75.527
			c-4.647,22.625-10.854,41.936-18.624,57.932c-7.771,15.998-16.683,28.338-26.737,37.021
			c-10.056,8.684-20.492,13.027-31.309,13.027c-8.685,0-15.919-2.137-21.71-6.4c-5.788-4.266-10.397-10.02-13.826-17.254
			c-3.428-7.236-5.862-15.693-7.313-25.365c-1.446-9.678-2.171-19.922-2.171-30.736c0-6.25,0.991-13.295,2.971-21.139
			c1.981-7.85,4.647-16.076,7.998-24.682c3.353-8.609,7.124-17.367,11.313-26.281c4.19-8.912,8.49-17.561,12.91-25.938
			c10.359-19.5,22.167-39.609,35.422-60.33c1.676-11.885,3.39-24.07,5.143-36.564c1.75-12.49,3.96-24.604,6.628-36.336
			c2.663-11.73,6.017-22.854,10.055-33.365c4.035-10.512,9.216-19.652,15.54-27.424c6.32-7.77,13.9-13.939,22.738-18.51
			c8.834-4.57,19.5-6.855,31.993-6.855c9.291,0,17.976,1.258,26.053,3.771c8.073,2.514,15.157,6.592,21.253,12.227
			c6.093,5.637,10.892,12.91,14.396,21.822c3.503,8.914,5.257,19.848,5.257,32.795c0,10.361-1.525,20.377-4.571,30.051
			c-3.049,9.676-7.809,18.932-14.281,27.766c-6.479,8.838-14.704,17.104-24.682,24.795c-9.979,7.695-21.824,14.59-35.536,20.682
			L1558.836,1025.062z M1450.515,1166.521c0,1.217,0.265,3.199,0.801,5.941c0.531,2.742,1.405,5.484,2.628,8.227
			c1.218,2.742,2.816,5.178,4.799,7.313c1.979,2.133,4.417,3.199,7.313,3.199c2.59,0,4.722-1.41,6.399-4.227
			c1.675-2.822,3.046-6.592,4.113-11.313c1.063-4.725,1.828-10.055,2.285-15.996c0.457-5.943,0.836-12.037,1.143-18.283
			c0.304-6.248,0.493-12.34,0.571-18.281c0.074-5.943,0.265-11.277,0.57-15.998c0.457-8.227,0.801-15.197,1.028-20.91
			s0.418-10.477,0.571-14.283c0.15-4.266,0.304-7.844,0.457-10.74c-2.896,5.027-5.713,10.855-8.455,17.482
			s-5.335,13.52-7.771,20.682c-2.438,7.16-4.647,14.318-6.627,21.482c-1.98,7.158-3.694,13.824-5.142,19.996
			c-1.45,6.17-2.593,11.5-3.428,15.996C1450.932,1161.3,1450.515,1164.539,1450.515,1166.521z M1530.042,1001.982
			c9.141-4.57,17.024-9.674,23.652-15.313c6.627-5.635,12.34-11.654,17.14-18.053c4.799-6.398,8.719-13.027,11.77-19.883
			c3.046-6.855,5.483-13.861,7.313-21.023c0.761-3.35,1.257-7.273,1.485-11.77c0.229-4.492-0.229-8.721-1.371-12.684
			c-1.144-3.961-3.124-7.35-5.941-10.17c-2.819-2.816-6.741-4.227-11.769-4.227c-5.64,0-10.592,1.563-14.854,4.684
			c-4.268,3.125-7.963,7.354-11.084,12.686c-3.124,5.334-5.713,11.654-7.77,18.967c-2.058,7.313-3.735,15.162-5.027,23.539
			c-1.297,8.379-2.211,17.104-2.742,26.166C1530.306,983.966,1530.042,992.994,1530.042,1001.982z"/>
		<path fill="#993399" d="M1801.073,894.574c4.417,8.838,7.729,18.168,9.94,27.996c2.206,9.826,3.313,19.234,3.313,28.223
			c0,8.99-0.993,18.053-2.971,27.193c-1.982,9.141-4.839,17.979-8.57,26.51c-3.734,8.533-8.306,16.531-13.711,23.994
			c-5.41,7.467-11.58,13.941-18.511,19.426c-6.936,5.484-14.513,9.826-22.738,13.025c-8.229,3.199-16.99,4.799-26.281,4.799
			c-13.408,0-24.873-2.932-34.393-8.797c-9.523-5.863-17.333-13.52-23.424-22.969c-6.097-9.443-10.553-20.109-13.369-31.992
			c-2.821-11.885-4.229-23.918-4.229-36.107c0-16.758,2.515-32.412,7.541-46.961c5.027-14.547,12.228-27.195,21.596-37.936
			c9.37-10.742,20.832-19.197,34.395-25.367c13.558-6.17,28.794-9.254,45.705-9.254c14.472,0,28.03,2.25,40.678,6.74
			c12.645,4.496,24.488,10.512,35.536,18.055c11.044,7.541,21.327,16.189,30.851,25.938c9.521,9.75,18.396,19.807,26.623,30.166
			l-4.342,32.223c-4.113-5.484-9.677-11.428-16.683-17.826c-7.009-6.398-14.438-12.645-22.281-18.738
			c-7.848-6.092-15.579-11.844-23.195-17.254c-7.62-5.406-14.168-9.941-19.652-13.598L1801.073,894.574z M1730.459,1021.863
			c5.178,0,10.205-2.627,15.083-7.883c4.874-5.258,9.141-11.885,12.797-19.883s6.588-16.832,8.799-26.51
			c2.206-9.672,3.313-18.928,3.313-27.766c0-7.006-0.536-13.52-1.601-19.539c-1.067-6.018-2.668-11.232-4.8-15.654
			c-2.135-4.416-4.877-7.918-8.227-10.512c-3.354-2.588-7.393-3.885-12.112-3.885c-6.248,0-12.19,2.668-17.824,8
			c-5.639,5.334-10.591,12.15-14.854,20.451c-4.269,8.307-7.62,17.482-10.057,27.537c-2.438,10.057-3.655,19.732-3.655,29.023
			c0,6.398,0.606,12.42,1.827,18.055c1.219,5.639,3.121,10.551,5.714,14.738c2.589,4.193,6.018,7.543,10.283,10.057
			C1719.411,1020.607,1724.517,1021.863,1730.459,1021.863z"/>
		<path fill="#993399" d="M2031.2,861.208c0,4.115-0.457,9.713-1.371,16.797c-0.914,7.086-2.097,14.855-3.543,23.311
			c-1.449,8.457-3.01,17.18-4.686,26.168c-1.678,8.99-3.237,17.367-4.685,25.137c-1.45,7.771-2.628,14.59-3.542,20.453
			c-0.914,5.867-1.371,9.939-1.371,12.227c0,4.268,0.075,8.191,0.229,11.77c0.148,3.582,0.605,6.707,1.37,9.369
			c0.762,2.668,1.942,4.725,3.542,6.172c1.601,1.449,3.922,2.17,6.971,2.17c3.35,0,7.428-0.836,12.227-2.514
			c4.799-1.676,9.901-3.922,15.313-6.742c5.404-2.816,10.93-6.016,16.566-9.598c5.635-3.578,11.006-7.35,16.111-11.313
			c5.103-3.959,9.748-7.885,13.939-11.77c4.188-3.885,7.577-7.502,10.169-10.854c0,5.027,0.036,9.598,0.114,13.711
			c0.075,4.113,0.114,8.037,0.114,11.77c0,3.734,0.036,7.58,0.114,11.541c0.074,3.963,0.113,8.381,0.113,13.254
			c-3.353,3.354-7.505,6.934-12.454,10.74c-4.952,3.811-10.438,7.621-16.454,11.426c-6.021,3.811-12.419,7.467-19.195,10.971
			c-6.78,3.506-13.599,6.592-20.453,9.254c-6.855,2.668-13.638,4.801-20.34,6.4c-6.705,1.6-12.95,2.398-18.738,2.398
			c-5.791,0-10.74-1.143-14.854-3.428s-7.655-5.484-10.627-9.6c-2.971-4.113-5.483-9.025-7.541-14.738
			c-2.057-5.713-3.85-12.072-5.371-19.082c-5.483,7.162-11.275,13.752-17.366,19.768c-6.097,6.02-12.307,11.236-18.625,15.654
			c-6.324,4.42-12.724,7.885-19.196,10.396c-6.479,2.516-12.762,3.771-18.854,3.771c-5.026,0-9.752-0.836-14.169-2.516
			c-4.421-1.674-8.341-4.49-11.769-8.453c-3.429-3.959-6.135-9.18-8.113-15.654c-1.98-6.475-2.971-14.512-2.971-24.109
			c0-11.73,1.407-26.66,4.228-44.791c2.817-18.129,6.285-38.85,10.398-62.16c0.304-2.283,0.875-5.371,1.714-9.254
			c0.835-3.885,1.979-8.113,3.428-12.684c1.446-4.57,3.235-9.215,5.37-13.939c2.132-4.721,4.646-8.986,7.542-12.797
			c2.893-3.807,6.284-6.932,10.169-9.371c3.885-2.434,8.263-3.73,13.142-3.885c8.072,0.307,13.86,1.336,17.367,3.086
			c3.502,1.752,5.256,3.924,5.256,6.512c-1.37,8.078-2.855,17.064-4.455,26.967c-1.601,9.904-3.239,19.883-4.914,29.938
			c-1.679,10.055-3.277,19.846-4.799,29.365c-1.524,9.523-2.896,18.018-4.113,25.48c-1.223,7.469-2.171,13.482-2.856,18.055
			c-0.686,4.57-1.027,6.936-1.027,7.084c0,2.742,0.264,5.371,0.8,7.885c0.532,2.514,1.332,4.764,2.398,6.742
			c1.064,1.98,2.437,3.58,4.113,4.799c1.676,1.221,3.656,1.828,5.941,1.828c3.35,0,6.777-0.875,10.284-2.629
			c3.503-1.75,6.815-4.264,9.939-7.541c3.121-3.273,5.902-7.314,8.343-12.111c2.435-4.799,4.264-10.244,5.483-16.34l22.624-116.092
			c0.761-3.656,3.846-6.742,9.256-9.254c5.405-2.516,11.54-3.771,18.396-3.771c7.771,0,13.939,1.371,18.511,4.113
			C2028.915,853.439,2031.2,856.947,2031.2,861.208z"/>
		<path fill="#993399" d="M2080.104,1017.978c0-6.701,0.379-14.512,1.144-23.424c0.761-8.912,1.789-18.318,3.086-28.223
			c1.292-9.902,2.817-19.998,4.57-30.281c1.749-10.283,3.616-20.07,5.599-29.365c1.979-9.291,3.96-17.824,5.941-25.594
			c1.979-7.77,3.96-14.168,5.941-19.195c1.219-3.35,2.436-6.018,3.656-7.998c1.218-1.98,2.628-3.543,4.229-4.686
			c1.6-1.143,3.577-1.904,5.94-2.285c2.36-0.379,5.292-0.57,8.799-0.57c3.96,0,7.045,0.191,9.255,0.57
			c2.207,0.383,3.846,1.295,4.913,2.742c1.064,1.449,1.716,3.541,1.943,6.285c0.229,2.742,0.343,6.477,0.343,11.197
			c0,5.639,0,12.455,0,20.453s0.149,15.883,0.457,23.652h2.514c3.047-6.092,6.475-12.912,10.283-20.453
			c3.807-7.543,8.229-14.586,13.255-21.139c5.027-6.549,10.74-12.074,17.14-16.568c6.398-4.492,13.786-6.74,22.168-6.74
			c2.892,0,5.713,0.494,8.455,1.484c2.741,0.992,5.142,2.398,7.198,4.229c2.058,1.828,3.691,4.078,4.913,6.742
			c1.219,2.666,1.828,5.676,1.828,9.025c0,2.592-0.382,6.209-1.143,10.855c-0.766,4.648-1.601,9.523-2.515,14.625
			c-0.914,5.105-1.754,10.055-2.514,14.854c-0.765,4.799-1.144,8.799-1.144,11.998c0,5.484,0.531,10.055,1.601,13.711
			c1.063,3.658,2.474,6.592,4.228,8.799c1.75,2.209,3.731,3.771,5.941,4.686c2.207,0.914,4.531,1.371,6.97,1.371
			c6.856,0,13.94-1.521,21.253-4.572c7.313-3.045,14.017-6.473,20.11-10.283c7.159-4.418,14.169-9.445,21.024-15.084l-3.429,53.475
			c-3.963,2.594-8.455,5.484-13.481,8.686c-5.028,3.199-10.398,6.209-16.111,9.027s-11.655,5.182-17.825,7.084
			c-6.17,1.904-12.455,2.855-18.854,2.855c-11.427,0-20.646-2.322-27.651-6.971c-7.01-4.646-12.568-10.74-16.683-18.281
			c-4.114-7.543-7.163-15.998-9.143-25.367c-1.98-9.369-3.581-18.854-4.799-28.451h-3.656l-40.905,114.035
			c-2.136,5.941-4.152,10.855-6.057,14.738c-1.906,3.885-3.85,7.049-5.828,9.484c-1.98,2.439-4.112,4.152-6.397,5.143
			c-2.285,0.992-4.799,1.484-7.541,1.484c-6.249,0-11.276-1.332-15.083-3.998c-3.811-2.664-6.741-6.246-8.798-10.742
			c-2.058-4.49-3.429-9.598-4.114-15.311S2080.104,1024.074,2080.104,1017.978z"/>
		<path fill="#993399" d="M2592.232,1014.55c-14.625,8.533-27.651,15.996-39.077,22.396c-11.427,6.396-21.597,11.73-30.509,15.996
			c-8.912,4.268-16.836,7.467-23.768,9.598c-6.936,2.135-13.219,3.199-18.854,3.199c-11.58,0-21.789-3.502-30.623-10.512
			c-8.838-7.008-16.226-17.102-22.166-30.279c-5.942-13.176-10.398-29.139-13.369-47.877s-4.456-39.838-4.456-63.303
			c0-9.141,0.378-18.889,1.143-29.252c0.761-10.357,1.828-20.641,3.199-30.85c-4.57-0.607-8.112-1.18-10.627-1.715
			c-2.514-0.531-5.181-1.064-7.998-1.6c-2.82-0.531-6.397-1.104-10.74-1.715c-4.343-0.605-10.627-1.369-18.854-2.283
			c-3.657-0.457-6.475-1.332-8.456-2.629c-1.979-1.293-3.428-2.816-4.342-4.57c-0.914-1.75-1.446-3.578-1.601-5.484
			c-0.149-1.902-0.229-3.543-0.229-4.914c0-3.047,1.485-5.371,4.457-6.971c2.971-1.6,6.78-2.777,11.427-3.541
			c4.647-0.762,9.748-1.178,15.311-1.258c5.561-0.074,10.893-0.035,15.997,0.115c5.104,0.152,9.674,0.268,13.712,0.342
			c4.035,0.08,6.816-0.035,8.341-0.342c4.113-20.568,9.332-40.486,15.654-59.762c6.32-19.27,13.404-36.41,21.253-51.418
			c7.845-15.003,16.415-27.041,25.709-36.106c9.291-9.063,19.043-13.599,29.252-13.599c6.55,0,12.529,1.829,17.939,5.485
			c5.405,3.656,10.016,8.534,13.825,14.625c3.807,6.095,6.741,13.219,8.799,21.367c2.057,8.151,3.085,16.647,3.085,25.481
			c0,7.467-1.067,15.352-3.199,23.652c-2.136,8.305-5.028,16.76-8.685,25.367s-7.963,17.332-12.911,26.166
			c-4.953,8.838-10.17,17.596-15.654,26.281c1.371,0.152,3.656,0.268,6.854,0.342c3.199,0.08,6.893,0.193,11.084,0.344
			c4.188,0.152,8.721,0.342,13.598,0.57c4.874,0.229,9.599,0.422,14.169,0.57c4.569,0.154,8.834,0.309,12.798,0.457
			c3.96,0.154,7.234,0.309,9.826,0.457c3.046,0.154,5.256,1.68,6.627,4.57c1.372,2.896,2.058,6.553,2.058,10.969
			c0,5.336-1.524,9.678-4.571,13.027c-3.049,3.352-6.397,5.025-10.055,5.025h-87.754c-4.421,6.096-8.877,12.076-13.369,17.939
			c-4.494,5.867-8.647,11.162-12.455,15.883c-0.609,9.449-1.143,18.74-1.6,27.881c-0.153,3.963-0.307,8.037-0.457,12.227
			c-0.153,4.191-0.307,8.34-0.457,12.455c-0.153,4.111-0.268,8.076-0.343,11.883c-0.078,3.811-0.114,7.313-0.114,10.512
			c0,8.229,0.761,15.162,2.285,20.797c1.521,5.639,3.73,10.248,6.628,13.824c2.892,3.582,6.435,6.172,10.626,7.771
			c4.188,1.6,8.873,2.398,14.055,2.398c3.199,0,7.198-0.76,11.997-2.285c4.8-1.52,10.056-3.615,15.769-6.283
			c5.713-2.664,11.73-5.826,18.055-9.484c6.32-3.656,12.568-7.654,18.738-11.996s12.072-8.914,17.711-13.713
			c5.636-4.799,10.74-9.711,15.313-14.74V1014.55L2592.232,1014.55z M2519.104,725.236c0-1.674-0.113-3.541-0.343-5.6
			c-0.229-2.057-0.725-4-1.485-5.828c-0.765-1.826-1.941-3.348-3.541-4.568c-1.601-1.219-3.851-1.83-6.742-1.83
			c-3.963,0-7.962,3.508-11.997,10.512c-4.039,7.01-7.925,15.961-11.655,26.854c-3.734,10.893-7.237,22.891-10.512,35.992
			c-3.278,13.105-6.284,25.824-9.027,38.164c2.285,0.307,4.571,0.57,6.855,0.801c2.285,0.229,4.646,0.496,7.084,0.799
			c4.57-7.77,9.33-16.186,14.283-25.252c4.949-9.063,9.405-17.975,13.368-26.738c3.96-8.758,7.233-16.945,9.827-24.566
			C2517.809,736.359,2519.104,730.113,2519.104,725.236z"/>
		<path fill="#993399" d="M2725.464,894.574c4.417,8.838,7.73,18.168,9.941,27.996c2.206,9.826,3.313,19.234,3.313,28.223
			c0,8.99-0.993,18.053-2.971,27.193c-1.981,9.141-4.839,17.979-8.57,26.51c-3.733,8.533-8.306,16.531-13.711,23.994
			c-5.409,7.467-11.58,13.941-18.511,19.426c-6.936,5.484-14.512,9.826-22.738,13.025c-8.228,3.199-16.99,4.799-26.281,4.799
			c-13.407,0-24.873-2.932-34.393-8.797c-9.523-5.863-17.333-13.52-23.424-22.969c-6.096-9.443-10.553-20.109-13.369-31.992
			c-2.821-11.885-4.229-23.918-4.229-36.107c0-16.758,2.515-32.412,7.541-46.961c5.027-14.547,12.228-27.195,21.597-37.936
			c9.37-10.742,20.832-19.197,34.394-25.367c13.559-6.17,28.794-9.254,45.705-9.254c14.473,0,28.03,2.25,40.678,6.74
			c12.645,4.496,24.488,10.512,35.536,18.055c11.044,7.541,21.327,16.189,30.852,25.938c9.52,9.75,18.396,19.807,26.623,30.166
			l-4.343,32.223c-4.112-5.484-9.677-11.428-16.683-17.826c-7.009-6.398-14.437-12.645-22.281-18.738
			c-7.848-6.092-15.579-11.844-23.194-17.254c-7.621-5.406-14.168-9.941-19.653-13.598L2725.464,894.574z M2654.85,1021.863
			c5.179,0,10.205-2.627,15.084-7.883c4.873-5.258,9.141-11.885,12.797-19.883s6.588-16.832,8.799-26.51
			c2.206-9.672,3.313-18.928,3.313-27.766c0-7.006-0.535-13.52-1.6-19.539c-1.068-6.018-2.668-11.232-4.8-15.654
			c-2.136-4.416-4.877-7.918-8.228-10.512c-3.353-2.588-7.392-3.885-12.111-3.885c-6.248,0-12.19,2.668-17.824,8
			c-5.639,5.334-10.592,12.15-14.854,20.451c-4.268,8.307-7.62,17.482-10.056,27.537c-2.438,10.057-3.656,19.732-3.656,29.023
			c0,6.398,0.607,12.42,1.828,18.055c1.218,5.639,3.121,10.551,5.714,14.738c2.588,4.193,6.018,7.543,10.283,10.057
			C2643.802,1020.607,2648.907,1021.863,2654.85,1021.863z"/>
		<path fill="#993399" d="M2955.591,861.208c0,4.115-0.457,9.713-1.371,16.797c-0.914,7.086-2.097,14.855-3.543,23.311
			c-1.448,8.457-3.01,17.18-4.685,26.168c-1.678,8.99-3.238,17.367-4.686,25.137c-1.449,7.771-2.628,14.59-3.542,20.453
			c-0.914,5.867-1.371,9.939-1.371,12.227c0,4.268,0.075,8.191,0.229,11.77c0.148,3.582,0.605,6.707,1.371,9.369
			c0.761,2.668,1.941,4.725,3.542,6.172c1.6,1.449,3.921,2.17,6.97,2.17c3.35,0,7.428-0.836,12.227-2.514
			c4.8-1.676,9.901-3.922,15.313-6.742c5.405-2.816,10.93-6.016,16.566-9.598c5.636-3.578,11.007-7.35,16.111-11.313
			c5.104-3.959,9.748-7.885,13.94-11.77c4.188-3.885,7.577-7.502,10.169-10.854c0,5.027,0.035,9.598,0.113,13.711
			c0.075,4.113,0.114,8.037,0.114,11.77c0,3.734,0.036,7.58,0.114,11.541c0.075,3.963,0.114,8.381,0.114,13.254
			c-3.354,3.354-7.505,6.934-12.454,10.74c-4.953,3.811-10.438,7.621-16.454,11.426c-6.021,3.811-12.419,7.467-19.196,10.971
			c-6.78,3.506-13.598,6.592-20.453,9.254c-6.854,2.668-13.637,4.801-20.339,6.4c-6.706,1.6-12.951,2.398-18.739,2.398
			c-5.791,0-10.74-1.143-14.854-3.428c-4.114-2.285-7.656-5.484-10.627-9.6c-2.971-4.113-5.484-9.025-7.541-14.738
			c-2.058-5.713-3.851-12.072-5.371-19.082c-5.484,7.162-11.276,13.752-17.367,19.768c-6.096,6.02-12.306,11.236-18.625,15.654
			c-6.324,4.42-12.723,7.885-19.196,10.396c-6.478,2.516-12.762,3.771-18.854,3.771c-5.027,0-9.752-0.836-14.169-2.516
			c-4.421-1.674-8.342-4.49-11.77-8.453c-3.429-3.959-6.135-9.18-8.113-15.654c-1.98-6.475-2.971-14.512-2.971-24.109
			c0-11.73,1.407-26.66,4.229-44.791c2.816-18.129,6.285-38.85,10.397-62.16c0.304-2.283,0.875-5.371,1.714-9.254
			c0.836-3.885,1.979-8.113,3.429-12.684c1.446-4.57,3.235-9.215,5.37-13.939c2.132-4.721,4.646-8.986,7.542-12.797
			c2.892-3.807,6.284-6.932,10.169-9.371c3.885-2.434,8.263-3.73,13.141-3.885c8.073,0.307,13.861,1.336,17.368,3.086
			c3.502,1.752,5.256,3.924,5.256,6.512c-1.371,8.078-2.855,17.064-4.456,26.967c-1.6,9.904-3.238,19.883-4.914,29.938
			c-1.678,10.055-3.277,19.846-4.799,29.365c-1.523,9.523-2.896,18.018-4.113,25.48c-1.222,7.469-2.171,13.482-2.855,18.055
			c-0.687,4.57-1.028,6.936-1.028,7.084c0,2.742,0.264,5.371,0.8,7.885c0.532,2.514,1.332,4.764,2.399,6.742
			c1.063,1.98,2.436,3.58,4.112,4.799c1.676,1.221,3.656,1.828,5.941,1.828c3.35,0,6.777-0.875,10.284-2.629
			c3.503-1.75,6.815-4.264,9.939-7.541c3.121-3.273,5.902-7.314,8.343-12.111c2.435-4.799,4.264-10.244,5.483-16.34l22.624-116.092
			c0.761-3.656,3.846-6.742,9.256-9.254c5.405-2.516,11.54-3.771,18.396-3.771c7.771,0,13.939,1.371,18.511,4.113
			C2953.306,853.439,2955.591,856.947,2955.591,861.208z"/>
		<path fill="#993399" d="M2997.184,977.986c8.529-7.313,15.461-13.404,20.795-18.281c5.332-4.875,9.901-9.33,13.713-13.369
			c3.806-4.035,7.272-8.113,10.396-12.227c3.121-4.113,6.816-8.986,11.084-14.625c4.264-5.635,9.444-12.529,15.54-20.682
			c6.091-8.148,14.015-18.318,23.767-30.508c1.979-2.742,4.188-5.406,6.627-8c2.437-2.588,5.143-4.912,8.112-6.969
			c2.972-2.059,6.245-3.732,9.827-5.029c3.578-1.291,7.577-1.941,11.997-1.941c7.313,0,12.948,0.801,16.911,2.398
			c3.96,1.6,6.855,3.543,8.685,5.828c1.828,2.285,2.893,4.686,3.199,7.199c0.304,2.514,0.457,4.684,0.457,6.512
			c0,3.656-1.45,7.695-4.342,12.113c-2.896,4.42-6.097,8.684-9.6,12.797c-3.506,4.113-6.819,7.883-9.939,11.311
			c-3.125,3.43-4.914,5.982-5.371,7.656c0,4.725,0.343,9.027,1.028,12.912s1.601,7.695,2.742,11.428
			c1.144,3.734,2.32,7.695,3.542,11.883c1.218,4.191,2.399,9.027,3.542,14.512c1.144,5.484,2.057,11.809,2.742,18.967
			c0.686,7.164,1.028,15.619,1.028,25.367c5.483-3.656,11.387-6.971,17.711-9.941c6.319-2.971,12.912-6.055,19.768-9.256
			c6.855-3.199,13.9-6.74,21.14-10.625c7.233-3.885,14.512-8.57,21.823-14.055l0.229,51.189
			c-9.448,7.313-20.378,14.168-32.794,20.568c-12.419,6.396-25.444,12.035-39.077,16.91c-13.637,4.877-27.424,8.723-41.363,11.541
			c-13.939,2.814-27.158,4.227-39.648,4.227c-8.991,0-17.368-0.838-25.139-2.514c-7.771-1.674-14.591-4.303-20.453-7.883
			c-5.866-3.578-10.626-8.266-14.282-14.057c-3.656-5.789-5.867-12.799-6.628-21.023c-2.135,0.457-4.229,0.764-6.284,0.914
			c-2.057,0.152-4.077,0.229-6.056,0.229c-2.438,0-4.725-0.074-6.855-0.229c-2.136-0.15-3.964-0.723-5.484-1.715
			c-1.524-0.988-2.742-2.59-3.656-4.801c-0.914-2.205-1.371-5.369-1.371-9.48c0-3.656,0.914-7.045,2.742-10.17
			c1.828-3.121,3.96-5.902,6.397-8.342c2.437-2.436,4.874-4.57,7.313-6.398C2994.133,980.5,2995.962,979.054,2997.184,977.986z
			 M3026.434,1007.238c1.83,0,3.847,1.143,6.058,3.428c2.206,2.285,4.76,4.799,7.655,7.541c2.893,2.742,6.244,5.256,10.056,7.541
			c3.806,2.285,8.147,3.428,13.024,3.428c5.942,0,10.855-0.988,14.74-2.971c3.885-1.979,6.97-4.605,9.255-7.883
			c2.286-3.275,3.886-7.084,4.8-11.428c0.914-4.342,1.371-8.873,1.371-13.598c0-4.113-0.269-8.301-0.8-12.568
			c-0.536-4.264-1.222-8.342-2.057-12.227c-0.841-3.885-1.754-7.541-2.743-10.969c-0.992-3.428-1.867-6.359-2.628-8.799
			L3026.434,1007.238z"/>
	</g>
</g>
<g>
	<path fill="#993399" d="M346.373,908.384c-0.584,0-1.158,0.02-1.73,0.037c-0.385,0.01-0.768,0.023-1.153,0.035l-0.447,0.004
		l-8.732-36.826l-14.012,3.324l8.172,34.467l-0.616,0.074c-5.517,0.648-10.915,1.572-16.046,2.748l-0.295-0.504l0.127,0.541
		c-5.23,1.201-10.439,2.701-15.485,4.461c-2.336,0.814-4.715,1.717-7.094,2.688l-0.668,0.275
		c-8.584,3.545-16.904,7.93-24.736,13.037l-0.773,0.502c-11.275,7.443-21.548,16.283-30.529,26.273l-0.074,0.076
		c-6.531,7.275-10.288,12.848-11.288,14.389l-2.528,4.041l4.477,8.074c3.172,5.1,10.037,15.082,20.922,25.73l-8.025-33.846
		l0.159-0.209c2.046-2.68,4.363-5.447,6.886-8.23l0.708-0.781l12.804,53.996c5.548,4.311,11.447,8.217,17.557,11.633l-18.328-77.295
		l0.256-0.219c2.384-2.057,4.879-4.072,7.411-5.99l0.677-0.512l21.256,89.648c5.234,2.318,10.682,4.332,16.219,5.984
		l-24.698-104.168l0.353-0.207c2.549-1.504,5.179-2.941,7.818-4.277l0.627-0.318l26.479,111.68
		c5.225,1.125,10.27,1.936,15.387,2.469l-9.537-40.225l1.27,1.045c3.078,2.531,6.488,4.594,10.138,6.131l0.261,0.111l7.969,33.615
		c2.149,0.086,4.003,0.141,5.91,0.141c2.738,0,5.569-0.086,8.86-0.266l-7.209-30.395l0.692-0.01
		c2.828-0.033,5.672-0.363,8.449-0.979l0.531-0.119l16.248,68.518l14.012-3.322l-8.748-36.877l0.554-0.121
		c62.321-13.5,91.905-61.379,93.134-63.408l2.173-3.594l-2.057-3.658C468.469,974.943,430.123,908.384,346.373,908.384z
		 M313.952,953.511c-2.581,3.023-4.699,6.393-6.312,10.016l-0.665,1.502l-8.019-33.82l0.46-0.17c2.702-0.99,5.457-1.904,8.194-2.713
		l0.56-0.168l5.961,25.143L313.952,953.511z M335.229,940.31c-2.758,0.693-5.446,1.674-7.987,2.914l-0.621,0.307l-4.424-18.639
		l0.582-0.098c2.664-0.463,5.543-0.859,8.555-1.186l0.487-0.053l3.939,16.623L335.229,940.31z M372.63,1030.228l-0.638,0.352
		l-3.832-16.176l0.312-0.213c11.243-7.695,17.958-20.402,17.958-33.99c0-20.523-15.343-38.047-35.681-40.762l-0.379-0.051
		l-3.843-16.209l0.724,0.025c30.873,1.068,55.053,26.102,55.053,56.992C402.304,1001.005,390.935,1020.175,372.63,1030.228z
		 M454.967,981.441c-6.075,8.316-23.342,29.16-52.336,42.973l-2.082,0.988l1.404-1.826c9.649-12.574,14.752-27.576,14.752-43.381
		c0-16.199-5.328-31.498-15.41-44.24l-1.477-1.869l2.147,1.027c29.736,14.172,46.979,36.676,53.012,45.695l0.219,0.32
		L454.967,981.441z"/>
	<path fill="#993399" d="M1197.698,830.195c-36.896,0-66.915-30.018-66.915-66.916c0-29.053,18.618-53.828,44.547-63.057v-16.9
		c-34.957,9.793-60.677,41.917-60.677,79.957c0,45.791,37.255,83.045,83.045,83.045c35.765,0,66.321-22.729,77.987-54.5
		l-14.057-8.785C1253.183,810.324,1227.72,830.195,1197.698,830.195z"/>
	<path fill="#993399" d="M1260.882,721.375h-30.638V696.75h32.257c4.453,0,8.064-3.609,8.064-8.064c0-4.452-3.611-8.063-8.064-8.063
		h-32.257v-11.33c0-12.088-9.801-21.889-21.891-21.889s-21.889,9.801-21.889,21.889v82.036h28.567h15.211h18.433l45.75,44.697
		c2.911,2.85,6.692,4.266,10.466,4.266c3.892,0,7.778-1.508,10.713-4.51c5.784-5.918,5.674-15.4-0.245-21.182L1260.882,721.375z"/>
	<circle fill="#993399" cx="1208.354" cy="619.562" r="21.889"/>
	<path fill="#993399" d="M651.594,227.14c4.558-4.558,7.382-10.848,7.382-17.786c0-13.878-11.292-25.167-25.171-25.167
		c-6.938,0-13.229,2.824-17.785,7.379l11.151,11.151c1.698-1.699,4.048-2.753,6.634-2.753c5.181,0,9.396,4.214,9.396,9.391
		c0,2.589-1.057,4.934-2.756,6.636L651.594,227.14z"/>
	<path fill="#993399" d="M590.273,216.556c-0.698-4.36-1.165-9.143-1.165-14.716c0-16.406,20.375-37.217,43.278-37.217
		c9.253,0,17.847,3.398,25.534,10.106c28.284,24.674,11.919,52.612-16.278,92.419c-10.9,15.392-14.83,30.561-17.985,42.75
		c-4.975,19.213-7.328,25.288-23.657,25.288c-7.538,0-10.445-2.762-11.977-4.84c-1.743-2.363-2.811-5.477-3.381-9.054H568.84
		c0.775,6.974,2.744,13.342,6.479,18.411c3.786,5.137,11.14,11.26,24.68,11.26c29.32,0,34.204-18.866,38.93-37.111
		c2.979-11.51,6.36-24.553,15.585-37.585c20.025-28.266,44.029-62.187,29.556-93.249l52.603-52.603l-11.156-11.156l-50.358,50.36
		c-2.025-2.285-4.307-4.544-6.865-6.779c-10.496-9.156-22.914-13.994-35.904-13.994c-29.807,0-59.057,26.249-59.057,52.994
		c0,11.147,1.654,19.889,3.356,27.147L590.273,216.556z"/>
	<polygon fill="#993399" points="614.014,253.076 602.113,242.66 490.746,354.027 501.904,365.184 	"/>
	<path fill="#993399" d="M858.91,1196.505c2.221-4.16,1.05-8.836,0.111-12.594c-0.094-0.369-0.203-0.803-0.308-1.24
		c0.334-0.078,0.663-0.156,0.961-0.232c5.373-1.275,15.367-3.662,17.377-13.416c1.533-7.451-1.547-14.93-5.444-24.396
		c-2.384-5.791-5.09-12.355-7.523-20.514c-1.971-6.592-3.146-14.236-4.393-22.328c-2.752-17.895-5.873-38.172-18.618-57.889
		c-1.679-2.594-5.141-3.33-7.727-1.656c-2.592,1.674-3.332,5.135-1.659,7.727c11.447,17.705,14.378,36.732,16.963,53.518
		c1.303,8.484,2.537,16.5,4.725,23.828c2.598,8.695,5.537,15.834,7.901,21.57c3.296,8.002,5.677,13.787,4.833,17.889
		c-0.533,2.578-4.402,3.699-9.025,4.803c-3.732,0.891-6.953,1.66-8.732,4.625c-1.963,3.268-1.053,6.906-0.17,10.428
		c0.326,1.311,0.92,3.686,0.818,4.641c-0.996,0.482-4.275,0.572-13.992-1.461c-4.932-1.031-10.313-3.619-15.059-5.906
		c-7.479-3.594-13.939-6.703-18.064-1.66c-1.594,1.947-2.215,4.514-1.749,7.225c0.993,5.777,7.091,12.557,16.31,18.133
		c5.177,3.139,10.695,4.406,15.134,5.428c1.942,0.447,4.766,1.1,5.904,1.689c-0.134,2.193-0.744,3.021-1.909,4.598
		c-1.405,1.906-3.331,4.518-3.899,9.074c-0.287,2.303,0.282,4.811,0.942,7.713c0.997,4.391,2.241,9.854,0.052,13.238
		c-1.768,2.732-6.551,5.637-11.926,5.637c-17.027,0-37.465-4.02-71.42-33.207c-2.345-2.01-5.867-1.742-7.882,0.602
		c-2.012,2.338-1.743,5.863,0.595,7.877c36.721,31.557,59.528,35.904,78.707,35.904c8.588,0,17.149-4.318,21.308-10.746
		c4.749-7.34,2.772-16.029,1.464-21.783c-0.319-1.404-0.76-3.324-0.753-3.848c0.206-1.664,0.742-2.385,1.809-3.828
		c1.64-2.229,3.887-5.275,4.098-11.195c0.331-9.184-8.288-11.17-14.581-12.617c-3.852-0.887-8.211-1.893-11.854-4.096
		c-1.336-0.809-2.531-1.607-3.603-2.389c4.318,2.012,9.215,4.074,14.091,5.096C842.809,1202.857,854.248,1205.25,858.91,1196.505z"
		/>
	<path fill="#993399" d="M796.362,1117.906c0.157,0.035,16.075,3.541,23.306,5.424c0.378,0.1,0.757,0.148,1.128,0.148
		c1.842,0,3.555-1.148,4.205-2.957c3.581-9.945,0.676-15.494-5.549-21.717c-1.457-1.455-3.719-1.732-5.488-0.656l-18.972,11.576
		c-1.559,0.949-2.382,2.754-2.079,4.553C793.214,1116.078,794.579,1117.513,796.362,1117.906z M815.495,1107.689
		c1.613,1.992,2.285,3.678,2.074,5.904c-2.664-0.646-5.664-1.344-8.49-1.992L815.495,1107.689z"/>
	<path fill="#993399" d="M880.038,1119.656c0.309,0.063,7.634,1.586,13.453,1.586l3.916,0.029c0.008,0,0.016,0,0.024,0
		c4.496,0,12.829-0.014,14.604-6.51c0.82-3.016-0.133-6.605-2.609-9.852c-3.015-3.943-7.449-6.297-11.867-6.297
		c-5.827,0-13.438,4.434-17.43,8.719c-2.603,2.793-3.824,5.576-3.633,8.266C876.638,1117.587,878.083,1119.246,880.038,1119.656z
		 M897.558,1107.552c1.353,0,2.851,0.742,4.111,2.035c0.873,0.891,1.338,1.754,1.564,2.291c-0.818,0.215-2.48,0.451-5.826,0.451
		l-3.916-0.027c-1.644,0-3.49-0.156-5.219-0.365C890.976,1109.757,894.962,1107.552,897.558,1107.552z"/>
	<path fill="#993399" d="M889.544,1201.447c-0.056,0.035-5.853,3.604-13.215,3.604c-7.312,0-11.219-1.801-11.418-1.896
		c-2.707-1.389-6.057-0.35-7.485,2.355c-1.445,2.73-0.405,6.109,2.321,7.555c0.611,0.326,6.272,3.164,16.582,3.164
		c10.732,0,18.875-5.135,19.217-5.354c2.588-1.656,3.34-5.086,1.699-7.684C895.597,1200.589,892.149,1199.822,889.544,1201.447z"/>
	<path fill="#993399" d="M947.688,1093.98c0.054-14.543-0.946-46.152-10.137-58.729c-1.82-2.49-5.32-3.035-7.806-1.215
		c-2.493,1.822-3.038,5.318-1.218,7.809c7.765,10.623,8.313,46.053,7.869,58.809c-0.068,1.914,0.852,3.73,2.436,4.813
		c1.585,1.076,3.607,1.271,5.366,0.51c0.062-0.025,5.969-2.439,9.476,1.059c1.221,1.223-0.969,7.477-2.279,11.213
		c-1.795,5.119-3.827,10.918-3.827,16.686c0,3.832,0.309,7.557,0.581,10.842c0.494,5.98,0.964,11.631-0.834,13.986
		c-0.482,0.633-0.934,1.23-2.375,0.162c-1.646-1.332-3.905-1.623-5.836-0.74c-1.928,0.881-3.19,2.773-3.266,4.893
		c-0.016,0.393-1.554,39.668-16.516,64.34c-10.605,17.496-25.73,26.367-44.951,26.367c-9.658,0-14.881-2.773-15.086-2.885
		c-2.65-1.525-6.041-0.648-7.604,1.998c-1.568,2.656-0.688,6.08,1.971,7.654c0.762,0.447,7.834,4.406,20.719,4.406
		c23.065,0,41.913-10.98,54.507-31.742c12.552-20.699,16.464-49.299,17.642-62.543c0.429-0.006,0.863-0.031,1.312-0.082
		c2.27-0.277,5.567-1.371,8.373-5.051c4.399-5.775,3.758-13.502,3.08-21.684c-0.269-3.223-0.541-6.553-0.541-9.924
		c0-3.861,1.627-8.502,3.198-12.988c2.729-7.795,5.823-16.619-0.366-22.811C957.397,1094.951,952.221,1093.794,947.688,1093.98z"/>
	<path fill="#993399" d="M1361.656,716.513c-0.075-1.758-0.051-3.52-0.209-5.273l-0.418-5.264l-0.42-5.264l-0.21-2.63
		c-0.079-0.876-0.218-1.745-0.323-2.619l-1.368-10.464c-0.188-1.749-0.565-3.47-0.865-5.202l-0.945-5.188l-0.944-5.186l-1.195-5.131
		l-1.203-5.127c-0.424-1.702-0.745-3.431-1.271-5.106l-2.909-10.11c-0.251-0.84-0.466-1.69-0.747-2.521l-0.851-2.485l-1.701-4.971
		l-1.701-4.966c-0.602-1.643-1.281-3.255-1.917-4.883c-1.319-3.238-2.534-6.517-3.937-9.713c-1.449-3.176-2.898-6.35-4.346-9.521
		c-0.37-0.789-0.708-1.593-1.102-2.369l-1.199-2.322l-2.396-4.641l-2.396-4.635c-0.832-1.524-1.732-3.014-2.594-4.521l-2.612-4.505
		c-0.895-1.487-1.689-3.032-2.665-4.468c-1.881-2.911-3.761-5.82-5.64-8.727c-0.912-1.471-1.927-2.871-2.938-4.273l-3.018-4.212
		l-3.017-4.206c-1.045-1.37-2.132-2.709-3.194-4.063l-3.205-4.048c-1.084-1.335-2.094-2.73-3.253-4
		c-2.259-2.589-4.516-5.174-6.769-7.757c-1.102-1.313-2.298-2.54-3.485-3.771l-3.555-3.701l-3.549-3.693
		c-1.213-1.198-2.47-2.354-3.701-3.53c-2.491-2.324-4.907-4.725-7.454-6.975c-2.575-2.216-5.148-4.428-7.717-6.637
		c-20.854-17.298-43.82-31.524-67.935-42.048l-4.497-2.013l-4.579-1.792c-3.055-1.177-6.082-2.409-9.142-3.53
		c-6.197-2.022-12.289-4.279-18.552-5.883c-12.389-3.67-24.984-6.066-37.477-7.983c-6.282-0.747-12.492-1.676-18.785-1.993
		c-1.566-0.111-3.129-0.225-4.692-0.338c-1.555-0.087-3.134-0.281-4.662-0.274c-3.077-0.067-6.146-0.135-9.204-0.2l-2.292-0.049
		l-1.146-0.025l-0.572-0.012c-0.175-0.009-0.513,0.006-0.644,0.009c-1.539,0.048-3.075,0.096-4.608,0.144
		c-3.067,0.097-6.124,0.192-9.172,0.288c-3.041,0.201-6.067,0.484-9.087,0.722c-3.018,0.257-6.031,0.438-9.007,0.899
		c-2.981,0.398-5.952,0.794-8.913,1.188l-2.217,0.297l-2.197,0.405c-1.463,0.271-2.924,0.541-4.382,0.81
		c-1.458,0.27-2.913,0.538-4.365,0.807c-1.448,0.285-2.91,0.495-4.335,0.868c-2.864,0.68-5.716,1.356-8.558,2.03
		c-1.419,0.343-2.843,0.658-4.249,1.024c-0.401,0.116-0.8,0.232-1.201,0.348c-2.36-2.663-4.771-5.313-7.251-7.947
		c-8.168-8.759-17.097-17.228-26.576-25.521c-2.305-2.152-4.842-4.054-7.295-6.086c-2.476-2.008-4.966-4.026-7.469-6.056
		c-2.55-1.971-5.196-3.845-7.813-5.788c-0.958-0.704-1.921-1.41-2.884-2.115c0.027-0.177,0.054-0.348,0.081-0.525
		c0.507-3.488,1.156-7.036,1.452-10.703c1.805-14.598,2.442-30.569,1.573-47.579c-0.868-17.004-3.256-35.072-7.781-53.695
		c-4.541-18.605-11.106-37.807-20.307-56.791c-9.224-18.952-20.854-37.803-35.255-55.499c-14.317-17.76-31.564-34.158-51.058-48.634
		c-2.37-1.883-4.956-3.57-7.496-5.316c-2.548-1.727-5.104-3.509-7.675-5.204c-2.577-1.576-5.163-3.157-7.758-4.743
		c-1.296-0.793-2.595-1.587-3.897-2.383c-0.059-0.035-0.462-0.287-0.61-0.361l-0.514-0.277l-1.025-0.554l-2.057-1.11
		c-2.743-1.48-5.494-2.964-8.254-4.453c-2.776-1.456-5.656-2.732-8.493-4.111c-5.641-2.837-11.567-5.127-17.452-7.6
		c-1.463-0.641-2.97-1.172-4.479-1.705c-1.506-0.539-3.015-1.078-4.526-1.619c-3.031-1.049-6.024-2.248-9.135-3.111
		c-3.091-0.927-6.189-1.856-9.294-2.788c-1.545-0.498-3.13-0.853-4.707-1.246c-1.578-0.388-3.158-0.776-4.74-1.165
		c-6.298-1.697-12.771-2.738-19.219-4.035c-3.244-0.533-6.514-0.953-9.782-1.435c-1.635-0.232-3.271-0.465-4.911-0.697
		c-1.646-0.154-3.297-0.308-4.947-0.463c-26.408-2.641-53.611-1.44-80.443,3.487c-3.343,0.676-6.69,1.353-10.044,2.031
		c-3.342,0.723-6.646,1.641-9.977,2.456c-1.66,0.427-3.332,0.822-4.986,1.278l-4.93,1.508l-4.937,1.512
		c-1.646,0.5-3.298,0.993-4.91,1.606c-3.243,1.165-6.49,2.332-9.743,3.5c-1.638,0.547-3.21,1.279-4.814,1.92l-4.796,1.986
		c-1.598,0.669-3.205,1.312-4.793,2.003l-4.706,2.217l-4.709,2.221c-1.573,0.736-3.148,1.468-4.668,2.313
		c-3.07,1.631-6.143,3.264-9.216,4.899c-1.557,0.782-3.012,1.748-4.522,2.616l-4.494,2.674c-1.492,0.901-3.007,1.766-4.483,2.697
		l-4.366,2.893l-4.368,2.896l-2.187,1.449c-0.725,0.488-1.413,1.027-2.122,1.539c-2.818,2.071-5.641,4.143-8.463,6.217
		c-2.791,2.114-5.46,4.391-8.195,6.581c-1.354,1.114-2.738,2.192-4.066,3.337l-3.918,3.516l-3.918,3.519l-1.959,1.76
		c-0.653,0.589-1.256,1.228-1.886,1.84l-7.486,7.424c-1.277,1.208-2.404,2.565-3.606,3.846l-3.558,3.897l-3.552,3.904l-3.359,4.072
		l-3.358,4.073c-1.108,1.369-2.276,2.687-3.296,4.125l-6.304,8.478c-0.52,0.712-1.062,1.402-1.563,2.132l-1.479,2.212l-2.956,4.427
		l-2.952,4.428c-1.006,1.473-1.812,2.974-2.727,4.46l-5.334,8.937l-5.011,9.422c-0.805,1.565-1.699,3.085-2.428,4.688L402.869,234
		l-2.237,4.782l-1.117,2.391c-0.363,0.801-0.674,1.625-1.013,2.437l-3.983,9.773c-0.7,1.614-1.223,3.296-1.818,4.949l-1.743,4.977
		l-1.74,4.975l-1.498,5.052l-1.489,5.052c-0.472,1.69-1.048,3.351-1.42,5.067l-2.468,10.228c-0.197,0.853-0.431,1.699-0.596,2.559
		l-0.49,2.582l-0.978,5.161l-0.978,5.158c-0.29,1.725-0.495,3.463-0.747,5.193c-0.455,3.466-1.02,6.917-1.381,10.389
		c-0.311,3.477-0.62,6.952-0.93,10.424c-0.069,0.869-0.172,1.735-0.213,2.605l-0.105,2.611l-0.21,5.218l-0.209,5.213
		c-0.03,1.737,0.016,3.476,0.021,5.212l0.044,5.208c0.041,1.735-0.032,3.471,0.106,5.201c0.196,3.461,0.393,6.919,0.588,10.373
		c0.065,1.729,0.254,3.449,0.441,5.167l0.541,5.153l0.542,5.146c0.231,1.708,0.515,3.408,0.77,5.111l0.785,5.103
		c0.283,1.696,0.472,3.408,0.852,5.085c0.684,3.366,1.365,6.729,2.048,10.088c0.31,1.686,0.742,3.343,1.167,5.001l1.259,4.973
		l1.259,4.966c0.463,1.643,0.985,3.268,1.475,4.899c1.017,3.252,1.93,6.532,3.03,9.747c1.146,3.198,2.287,6.394,3.429,9.583
		c8.088,21.407,18.58,41.646,31.139,60.115c-0.814,1.425-1.633,2.848-2.408,4.296l-2.957,5.843l-2.957,5.846l-1.479,2.925
		c-0.485,0.979-0.902,1.99-1.356,2.984c-1.783,3.992-3.567,7.985-5.353,11.983l-0.664,1.501l-0.597,1.53l-1.193,3.062l-2.386,6.125
		c-0.782,2.047-1.619,4.073-2.355,6.139l-1.711,5.121c-1.17-0.037-2.335-0.074-3.508-0.111c-1.519-0.048-3.041-0.097-4.565-0.145
		c-0.069-0.003-0.545-0.022-0.711-0.013l-0.582,0.013l-1.167,0.026l-2.335,0.051c-3.115,0.069-6.24,0.14-9.377,0.209
		c-3.133,0.107-6.267,0.423-9.414,0.625c-6.307,0.323-12.591,1.263-18.928,2.021c-1.588,0.166-3.161,0.449-4.736,0.731
		c-1.575,0.276-3.153,0.554-4.733,0.83c-3.154,0.586-6.348,1.023-9.479,1.812c-3.144,0.722-6.297,1.444-9.457,2.171
		c-1.588,0.331-3.142,0.806-4.706,1.244c-1.563,0.442-3.13,0.886-4.696,1.33c-6.313,1.639-12.455,3.933-18.7,5.993
		c-3.084,1.14-6.135,2.392-9.213,3.588l-4.614,1.821l-4.53,2.043c-24.262,10.76-47.314,25.25-68.203,42.798
		c-2.572,2.239-5.148,4.482-7.728,6.729c-2.548,2.281-4.965,4.712-7.458,7.067c-1.232,1.192-2.489,2.361-3.702,3.577l-3.54,3.748
		l-3.543,3.754c-1.185,1.249-2.376,2.492-3.475,3.822c-2.243,2.616-4.489,5.236-6.739,7.859c-1.154,1.286-2.157,2.698-3.236,4.049
		l-3.188,4.098c-1.057,1.369-2.138,2.725-3.177,4.11l-2.994,4.253l-2.996,4.258c-1.003,1.418-2.011,2.833-2.915,4.319
		c-1.86,2.936-3.724,5.873-5.588,8.814c-0.967,1.449-1.754,3.008-2.639,4.51l-2.584,4.545c-0.852,1.521-1.742,3.023-2.565,4.563
		l-2.365,4.672l-2.366,4.678l-1.183,2.34c-0.389,0.783-0.722,1.592-1.085,2.387c-1.427,3.193-2.853,6.391-4.282,9.588
		c-1.382,3.217-2.575,6.516-3.872,9.773c-0.626,1.637-1.295,3.258-1.885,4.91l-1.668,4.994l-1.666,4.996l-0.833,2.498
		c-0.276,0.832-0.484,1.688-0.73,2.529l-2.838,10.154c-0.512,1.684-0.821,3.418-1.233,5.127l-1.166,5.146l-1.157,5.148l-0.908,5.201
		l-0.906,5.201c-0.286,1.736-0.65,3.461-0.826,5.215l-1.288,10.484c-0.1,0.875-0.231,1.742-0.305,2.625l-0.192,2.654l-0.381,5.311
		l-0.378,5.309c-0.145,1.777-0.103,3.48-0.164,5.225l-0.22,10.404l0.302,10.668c0.075,1.758,0.049,3.521,0.207,5.275l0.419,5.264
		l0.419,5.262l0.211,2.631c0.08,0.877,0.218,1.746,0.324,2.619l1.368,10.465c0.188,1.748,0.565,3.469,0.864,5.201l0.945,5.188
		l0.947,5.186l1.194,5.131l1.203,5.127c0.425,1.703,0.746,3.432,1.271,5.107l2.91,10.109c0.251,0.84,0.466,1.689,0.747,2.52
		l0.851,2.486l1.701,4.971l1.701,4.967c0.601,1.643,1.281,3.256,1.918,4.883c1.318,3.236,2.534,6.518,3.935,9.713
		c1.45,3.176,2.899,6.35,4.346,9.521c0.37,0.789,0.708,1.594,1.102,2.369l1.199,2.322l2.396,4.639l2.396,4.637
		c0.834,1.523,1.733,3.012,2.595,4.52l2.612,4.506c0.894,1.488,1.689,3.031,2.665,4.467c1.881,2.912,3.761,5.822,5.639,8.729
		c0.913,1.469,1.927,2.871,2.938,4.271l3.018,4.213l3.015,4.205c1.046,1.369,2.133,2.709,3.196,4.063l3.205,4.049
		c1.084,1.334,2.094,2.729,3.253,3.998c2.259,2.59,4.515,5.176,6.768,7.758c1.102,1.313,2.298,2.539,3.486,3.771l3.553,3.699
		l3.549,3.693c1.215,1.199,2.471,2.354,3.703,3.531c2.491,2.324,4.907,4.725,7.453,6.975c2.576,2.215,5.149,4.428,7.717,6.637
		c20.854,17.299,43.821,31.525,67.935,42.049l4.497,2.012l4.579,1.793c3.056,1.176,6.082,2.408,9.142,3.529
		c6.197,2.021,12.29,4.279,18.551,5.883c12.389,3.67,24.985,6.066,37.477,7.982c6.282,0.746,12.492,1.676,18.785,1.992
		c1.566,0.113,3.129,0.227,4.691,0.338c1.557,0.088,3.135,0.281,4.664,0.275c3.077,0.066,6.144,0.133,9.203,0.199l2.293,0.051
		l1.145,0.025l0.572,0.012c0.175,0.008,0.513-0.006,0.644-0.01c1.539-0.049,3.075-0.096,4.608-0.145
		c3.068-0.096,6.124-0.191,9.172-0.287c3.041-0.203,6.068-0.484,9.087-0.723c3.019-0.256,6.031-0.438,9.007-0.9
		c2.981-0.396,5.952-0.793,8.912-1.188l2.219-0.297l2.196-0.404c1.464-0.271,2.924-0.541,4.382-0.811s2.912-0.539,4.365-0.809
		c1.449-0.283,2.91-0.494,4.335-0.867c2.864-0.678,5.716-1.354,8.558-2.027c1.42-0.344,2.843-0.66,4.249-1.025
		c1.398-0.406,2.791-0.811,4.184-1.215c2.783-0.809,5.553-1.613,8.313-2.416c2.739-0.869,5.431-1.852,8.128-2.768
		c1.348-0.465,2.691-0.928,4.033-1.391c0.668-0.238,1.345-0.451,2.005-0.707l1.97-0.791c21.104-8.119,40.458-18.502,57.786-30.23
		c2.01-1.363,3.984-2.751,5.937-4.153c1.029,3.083,2.108,6.157,3.131,9.257c1.142,3.084,2.394,6.135,3.589,9.213l1.821,4.613
		l2.044,4.531c10.759,24.262,25.25,47.313,42.797,68.203c2.24,2.572,4.483,5.146,6.729,7.727c2.281,2.549,4.712,4.965,7.066,7.459
		c1.192,1.232,2.361,2.49,3.576,3.703l3.748,3.539l3.754,3.543c1.249,1.184,2.493,2.375,3.822,3.475
		c2.617,2.242,5.236,4.49,7.859,6.738c1.287,1.154,2.698,2.158,4.05,3.236l4.097,3.188c1.371,1.059,2.726,2.139,4.111,3.178
		l4.254,2.994l4.258,2.996c1.417,1.004,2.832,2.01,4.318,2.914c2.934,1.861,5.873,3.725,8.813,5.59
		c1.449,0.965,3.009,1.754,4.509,2.637l4.548,2.584c1.521,0.854,3.022,1.742,4.561,2.566l4.673,2.365l4.678,2.365l2.341,1.184
		c0.782,0.389,1.592,0.721,2.388,1.086c3.193,1.426,6.39,2.852,9.587,4.281c3.217,1.381,6.515,2.574,9.773,3.871
		c1.637,0.627,3.259,1.297,4.909,1.885l4.993,1.668l4.995,1.666l2.499,0.834c0.833,0.275,1.688,0.482,2.53,0.729l10.154,2.838
		c1.683,0.514,3.418,0.822,5.127,1.234l5.146,1.166l5.148,1.156l5.199,0.908l5.202,0.906c1.736,0.285,3.461,0.65,5.214,0.826
		l10.485,1.287c0.875,0.102,1.743,0.232,2.625,0.305l2.655,0.193l5.309,0.381l5.311,0.379c1.777,0.145,3.479,0.102,5.224,0.164
		l10.405,0.219l10.668-0.303c1.757-0.074,3.521-0.049,5.274-0.207l5.265-0.418l5.263-0.42l2.631-0.211
		c0.876-0.08,1.745-0.217,2.619-0.324l10.464-1.367c1.749-0.188,3.471-0.564,5.202-0.865l5.188-0.945l5.185-0.945l5.132-1.193
		l5.128-1.203c1.702-0.426,3.431-0.746,5.106-1.271l10.11-2.91c0.84-0.252,1.69-0.467,2.52-0.746l2.486-0.852l4.97-1.701
		l4.967-1.701c1.644-0.602,3.255-1.281,4.883-1.918c3.238-1.318,6.518-2.533,9.713-3.936c3.177-1.449,6.351-2.898,9.521-4.346
		c0.789-0.369,1.593-0.707,2.37-1.102l2.32-1.199l4.641-2.396l4.635-2.396c1.525-0.832,3.013-1.73,4.521-2.594l4.505-2.611
		c1.487-0.895,3.032-1.689,4.468-2.666c2.913-1.881,5.821-3.76,8.727-5.639c1.472-0.912,2.871-1.926,4.273-2.938l4.211-3.018
		l4.207-3.016c1.371-1.045,2.709-2.133,4.063-3.195l4.049-3.205c1.335-1.084,2.729-2.094,4-3.254
		c2.589-2.258,5.174-4.514,7.757-6.768c1.313-1.102,2.54-2.297,3.771-3.486l3.7-3.553l3.694-3.549
		c1.197-1.215,2.353-2.471,3.529-3.703c2.325-2.492,4.726-4.906,6.976-7.453c2.215-2.576,4.428-5.148,6.637-7.717
		c17.298-20.854,31.526-43.82,42.048-67.936l2.014-4.496l1.791-4.578c1.177-3.057,2.409-6.082,3.53-9.143
		c2.022-6.197,4.279-12.291,5.884-18.551c3.669-12.391,6.064-24.986,7.981-37.477c0.746-6.283,1.676-12.492,1.992-18.785
		c0.113-1.566,0.227-3.129,0.339-4.693c0.087-1.555,0.281-3.133,0.275-4.662c0.043-1.999,0.086-3.988,0.129-5.979
		c0.912-0.114,1.825-0.228,2.739-0.337c1.588-0.166,3.161-0.449,4.736-0.732c1.576-0.275,3.154-0.553,4.733-0.83
		c3.154-0.586,6.349-1.023,9.479-1.811c3.144-0.723,6.297-1.445,9.457-2.172c1.588-0.33,3.142-0.807,4.707-1.244
		c1.563-0.441,3.129-0.887,4.696-1.33c6.313-1.639,12.455-3.932,18.699-5.992c3.084-1.141,6.136-2.393,9.214-3.59l4.612-1.82
		l4.531-2.045c24.262-10.758,47.314-25.25,68.203-42.797c2.573-2.24,5.148-4.482,7.727-6.729c2.55-2.281,4.967-4.713,7.459-7.068
		c1.232-1.193,2.49-2.361,3.703-3.576l3.539-3.748l3.543-3.754c1.186-1.25,2.376-2.494,3.476-3.824
		c2.243-2.615,4.489-5.234,6.738-7.857c1.153-1.287,2.157-2.699,3.236-4.049l3.188-4.098c1.057-1.371,2.138-2.725,3.177-4.111
		l2.994-4.254l2.995-4.258c1.004-1.416,2.012-2.832,2.914-4.316c1.861-2.936,3.726-5.873,5.59-8.814
		c0.967-1.449,1.754-3.01,2.639-4.51l2.584-4.547c0.852-1.521,1.742-3.023,2.564-4.561l2.365-4.674l2.365-4.676l1.184-2.34
		c0.389-0.783,0.723-1.594,1.086-2.389c1.426-3.193,2.854-6.389,4.281-9.588c1.382-3.217,2.576-6.516,3.872-9.771
		c0.626-1.639,1.296-3.26,1.885-4.912l1.667-4.992l1.667-4.996l0.833-2.498c0.276-0.834,0.484-1.688,0.73-2.531l2.838-10.154
		c0.512-1.684,0.82-3.418,1.233-5.127l1.165-5.146l1.157-5.148l0.908-5.199l0.906-5.203c0.286-1.736,0.649-3.461,0.825-5.213
		l1.288-10.486c0.101-0.875,0.231-1.742,0.306-2.625l0.191-2.654l0.381-5.309l0.38-5.309c0.144-1.779,0.102-3.48,0.163-5.225
		l0.22-10.406L1361.656,716.513z M400.229,454.443c-1.091-3.122-2.184-6.249-3.278-9.38c-1.052-3.146-1.917-6.355-2.888-9.535
		c-0.467-1.598-0.966-3.186-1.404-4.79l-1.191-4.854l-1.193-4.859c-0.403-1.62-0.814-3.239-1.104-4.886
		c-0.642-3.28-1.283-6.564-1.927-9.852c-0.36-1.637-0.528-3.308-0.792-4.964l-0.729-4.98c-0.235-1.662-0.501-3.32-0.715-4.987
		l-0.49-5.02l-0.49-5.025c-0.17-1.675-0.345-3.351-0.396-5.037c-0.166-3.366-0.332-6.735-0.499-10.108
		c-0.124-1.684-0.039-3.376-0.066-5.065l-0.005-5.071c0.008-1.691-0.026-3.384,0.015-5.075l0.242-5.073l0.239-5.077l0.12-2.54
		c0.046-0.846,0.154-1.688,0.228-2.533c0.327-3.376,0.651-6.755,0.978-10.135c0.376-3.374,0.952-6.727,1.418-10.094
		c0.257-1.68,0.467-3.369,0.763-5.043l0.985-5.008l0.987-5.01l0.492-2.506c0.167-0.835,0.401-1.655,0.599-2.483l2.471-9.921
		c0.37-1.665,0.945-3.275,1.416-4.914l1.482-4.897l1.488-4.896l1.729-4.82l1.728-4.821c0.59-1.601,1.106-3.231,1.801-4.793
		l3.938-9.46c0.334-0.786,0.641-1.584,0.998-2.359l1.104-2.313l2.207-4.626l2.204-4.627c0.718-1.552,1.6-3.02,2.392-4.534
		l4.818-8.926l5.408-8.892c0.916-1.459,1.771-3.013,2.737-4.396l2.862-4.201l2.857-4.202l1.429-2.101
		c0.483-0.696,1.021-1.365,1.529-2.049l6.177-8.164c0.998-1.385,2.144-2.652,3.227-3.968l3.287-3.917l3.284-3.917l3.472-3.749
		l3.475-3.743c1.176-1.231,2.273-2.536,3.521-3.694l7.305-7.122c0.614-0.587,1.202-1.202,1.838-1.765l1.91-1.686l3.819-3.371
		l3.813-3.369c1.295-1.096,2.644-2.126,3.961-3.192c2.665-2.094,5.261-4.276,7.977-6.296c2.746-1.979,5.49-3.957,8.232-5.933
		c0.689-0.488,1.36-1.003,2.065-1.467l2.126-1.378l4.249-2.754l4.244-2.753c1.434-0.884,2.908-1.704,4.358-2.559l4.364-2.539
		c1.467-0.823,2.878-1.744,4.392-2.482c2.982-1.548,5.964-3.094,8.941-4.638c1.475-0.803,3.003-1.493,4.528-2.186l4.565-2.096
		l4.559-2.095c1.541-0.651,3.099-1.254,4.645-1.883l4.646-1.869c1.555-0.602,3.073-1.295,4.661-1.805
		c3.146-1.094,6.288-2.187,9.426-3.279c1.559-0.578,3.155-1.034,4.748-1.499l4.77-1.408l4.764-1.407
		c1.598-0.428,3.209-0.8,4.812-1.202c3.213-0.765,6.397-1.637,9.62-2.315c3.233-0.635,6.46-1.269,9.684-1.902
		c25.86-4.605,52.03-5.605,77.394-2.945c1.588,0.146,3.173,0.291,4.757,0.437c1.575,0.223,3.149,0.445,4.72,0.667
		c3.141,0.461,6.284,0.858,9.402,1.366c6.196,1.246,12.42,2.229,18.473,3.858c12.215,2.802,24.008,6.75,35.501,11.042
		c5.673,2.349,11.392,4.508,16.836,7.211c2.737,1.312,5.519,2.518,8.2,3.905c2.666,1.418,5.325,2.831,7.976,4.241l1.986,1.056
		l0.992,0.527l0.496,0.263c0.191,0.098,0.106,0.06,0.375,0.216c1.313,0.779,2.621,1.557,3.928,2.333
		c2.614,1.553,5.221,3.101,7.818,4.643c2.491,1.602,4.894,3.244,7.335,4.853c2.427,1.624,4.882,3.172,7.205,4.973
		c2.353,1.741,4.699,3.476,7.036,5.205l1.752,1.296l1.681,1.38c1.12,0.92,2.238,1.837,3.354,2.753
		c1.116,0.916,2.23,1.83,3.343,2.743c1.101,0.925,2.251,1.791,3.289,2.781c2.126,1.923,4.244,3.839,6.354,5.748
		c1.053,0.957,2.124,1.892,3.156,2.863c1.005,1,2.008,1.998,3.008,2.995c2.005,1.993,3.999,3.978,5.986,5.956
		c1.938,2.026,3.778,4.127,5.662,6.174c0.937,1.03,1.871,2.057,2.804,3.081c0.462,0.517,0.944,1.016,1.389,1.545l1.315,1.6
		c14.226,16.88,26.191,34.729,35.675,52.959c9.505,18.226,16.464,36.802,21.459,54.902c4.98,18.116,7.921,35.803,9.226,52.542
		c1.291,16.742,1.109,32.545-0.336,47.036c-0.204,3.348-0.706,6.596-1.124,9.793c-0.896-0.661-1.795-1.319-2.74-1.914
		c-21.746-14.884-46.051-28.139-72.63-38.479c-26.533-10.446-55.402-17.61-85.525-21.339c-3.74-0.576-7.593-0.809-11.433-1.132
		c-3.837-0.298-7.716-0.652-11.557-0.901c-3.774-0.116-7.562-0.231-11.36-0.348c-1.899-0.058-3.802-0.116-5.708-0.175
		c-0.087-0.002-0.68-0.026-0.888-0.014l-0.729,0.016l-1.458,0.032l-2.918,0.064c-3.896,0.087-7.803,0.175-11.722,0.262l-1.47,0.034
		l-1.469,0.104l-2.938,0.213c-1.961,0.143-3.925,0.286-5.892,0.43c-7.884,0.403-15.737,1.577-23.658,2.526
		c-0.989,0.135-1.985,0.218-2.969,0.397l-2.953,0.517c-1.97,0.346-3.942,0.692-5.918,1.038c-1.976,0.347-3.955,0.695-5.935,1.043
		c-0.988,0.186-1.988,0.32-2.967,0.551l-2.947,0.67c-3.93,0.902-7.871,1.806-11.822,2.713c-1.985,0.414-3.927,1.007-5.883,1.555
		c-1.955,0.554-3.912,1.108-5.871,1.663c-1.96,0.555-3.921,1.111-5.885,1.668l-1.474,0.418l-1.453,0.485l-2.906,0.98
		c-3.877,1.31-7.763,2.622-11.658,3.938c-3.854,1.425-7.668,2.99-11.516,4.485c-1.921,0.759-3.843,1.518-5.768,2.278
		c-1.887,0.85-3.773,1.702-5.664,2.554c-30.329,13.431-59.196,31.487-85.272,53.473c-3.212,2.803-6.429,5.61-9.651,8.422
		l-1.206,1.057l-1.156,1.111l-2.316,2.223l-4.636,4.452c-1.539,1.493-3.108,2.955-4.624,4.475l-4.426,4.686l-4.428,4.691
		c-1.48,1.562-2.971,3.116-4.343,4.779c-2.805,3.271-5.613,6.546-8.425,9.824c-1.442,1.607-2.697,3.373-4.046,5.062l-3.983,5.122
		c-1.323,1.713-2.672,3.406-3.971,5.14l-3.743,5.316l-3.745,5.322l-1.873,2.664c-0.632,0.882-1.178,1.824-1.771,2.733
		c-2.326,3.67-4.655,7.343-6.986,11.019l-0.873,1.379l-0.81,1.418l-1.614,2.84l-0.531,0.935
		C417.121,493.343,407.604,474.396,400.229,454.443z M397.154,628.456l1.147-6.285l1.455-6.219l1.462-6.215l0.73-3.105l0.37-1.551
		l0.442-1.533c1.18-4.085,2.357-8.169,3.535-12.251c0.306-1.017,0.564-2.048,0.907-3.053l1.034-3.013l2.066-6.021l2.063-6.02
		c0.728-1.99,1.557-3.943,2.33-5.916l2.354-5.9l1.178-2.949l0.588-1.474l0.654-1.445c1.762-3.847,3.521-7.692,5.28-11.534
		c0.448-0.956,0.86-1.93,1.339-2.871l1.459-2.811l2.915-5.619l2.91-5.614c1.012-1.847,2.106-3.648,3.155-5.474l3.174-5.456
		l1.586-2.727l0.793-1.36l0.858-1.322c2.287-3.525,4.569-7.047,6.851-10.566c0.581-0.872,1.115-1.775,1.734-2.622l1.836-2.551
		l3.665-5.099l3.66-5.093c1.271-1.659,2.591-3.278,3.883-4.917l3.892-4.9c1.316-1.615,2.539-3.307,3.949-4.842
		c2.742-3.133,5.481-6.262,8.217-9.387c1.336-1.592,2.789-3.074,4.232-4.563l4.313-4.477l4.306-4.473
		c1.472-1.449,2.996-2.849,4.488-4.273l4.496-4.255l2.245-2.125l1.121-1.063l1.17-1.009c3.123-2.685,6.24-5.364,9.354-8.04
		c25.289-20.93,53.057-38.245,82.256-51.046c1.813-0.823,3.627-1.644,5.438-2.465c1.85-0.731,3.695-1.462,5.54-2.191
		c3.698-1.439,7.359-2.951,11.062-4.326c3.742-1.268,7.474-2.533,11.198-3.796l2.791-0.947l1.396-0.469l1.416-0.402
		c1.886-0.537,3.771-1.072,5.653-1.608c15.003-4.502,30.256-7.5,45.398-9.938c7.613-0.952,15.162-2.14,22.748-2.567
		c1.893-0.15,3.781-0.3,5.668-0.449l2.828-0.225l1.412-0.111l1.416-0.04c3.773-0.106,7.535-0.213,11.286-0.319l2.812-0.081
		l1.404-0.041l0.701-0.02c0.269-0.012,0.152,0,0.541,0.003c1.906,0.038,3.81,0.076,5.709,0.114
		c3.801,0.076,7.588,0.151,11.364,0.227c3.696,0.205,7.32,0.508,10.968,0.752c3.639,0.269,7.261,0.438,10.898,0.963
		c3.633,0.434,7.254,0.866,10.861,1.296l2.705,0.323l2.679,0.458c1.785,0.306,3.567,0.61,5.346,0.914
		c1.778,0.304,3.555,0.606,5.326,0.909c1.771,0.321,3.555,0.55,5.294,0.983c3.5,0.774,6.985,1.545,10.459,2.313
		c1.734,0.389,3.477,0.743,5.198,1.16c1.71,0.466,3.416,0.932,5.119,1.396c3.409,0.928,6.804,1.852,10.186,2.773
		c3.357,1.003,6.655,2.148,9.968,3.209c1.652,0.539,3.304,1.078,4.95,1.615c0.819,0.276,1.65,0.521,2.462,0.821l2.419,0.925
		c25.892,9.542,49.901,21.584,71.461,35.542c21.584,13.93,40.651,29.777,57.269,46.354c16.604,16.607,30.729,34.008,42.489,51.392
		c11.747,17.394,21.317,34.676,28.699,51.315c2.007,4.091,3.558,8.276,5.226,12.311c1.636,4.048,3.312,7.981,4.604,11.954
		c1.376,3.942,2.721,7.794,4.032,11.551c1.164,3.806,2.232,7.538,3.31,11.163c0.534,1.813,1.061,3.604,1.581,5.369
		c0.484,1.774,0.871,3.548,1.302,5.283c0.833,3.48,1.643,6.859,2.428,10.137c0.188,0.82,0.404,1.63,0.563,2.442
		c0.15,0.815,0.301,1.624,0.448,2.427c0.298,1.604,0.592,3.182,0.879,4.733c0.574,3.105,1.132,6.104,1.667,8.994
		c0.862,5.814,1.527,11.216,2.199,16.156c0.379,2.466,0.491,4.846,0.69,7.099c0.182,2.255,0.359,4.396,0.521,6.417
		c0.162,2.022,0.326,3.926,0.471,5.71c0.154,1.784,0.15,3.456,0.219,5.001c0.091,3.093,0.209,5.695,0.271,7.791
		c0.123,4.191,0.272,6.355,0.272,6.355h0.002c-0.005,0.077-0.137,2.229-0.236,6.353c-0.05,2.1-0.196,4.709-0.271,7.807
		c-0.06,1.549-0.026,3.229-0.17,5.01c-0.133,1.785-0.276,3.689-0.426,5.709c-1.051,16.141-3.567,40.01-11.771,69.215
		c-1.05,3.641-2.09,7.389-3.226,11.211c-1.285,3.775-2.603,7.646-3.95,11.609c-1.265,3.992-2.911,7.949-4.52,12.02
		c-1.64,4.059-3.162,8.27-5.142,12.387c-7.264,16.752-16.713,34.18-28.36,51.75c-11.661,17.561-25.709,35.17-42.269,52.02
		c-8.245,8.457-17.247,16.584-26.758,24.525c-2.313,2.064-4.856,3.877-7.314,5.816c-2.479,1.916-4.972,3.842-7.478,5.779
		c-2.55,1.877-5.195,3.656-7.809,5.504c-1.312,0.918-2.627,1.836-3.945,2.758c-1.326,0.91-2.616,1.883-4.005,2.713
		c-21.646,14.176-45.762,26.518-71.865,36.213l-2.438,0.941c-0.815,0.305-1.653,0.555-2.479,0.836
		c-1.66,0.549-3.322,1.098-4.988,1.648c-3.338,1.082-6.664,2.25-10.048,3.273c-3.41,0.941-6.832,1.889-10.268,2.836
		c-1.719,0.477-3.438,0.951-5.163,1.43c-1.736,0.426-3.492,0.789-5.243,1.188c-3.503,0.787-7.021,1.576-10.55,2.367
		c-1.756,0.441-3.558,0.676-5.341,1.006c-1.789,0.311-3.581,0.619-5.377,0.93c-1.795,0.313-3.593,0.623-5.395,0.936l-2.703,0.469
		l-2.729,0.332c-3.643,0.443-7.297,0.889-10.965,1.334c-3.657,0.527-7.362,0.705-11.07,0.979c-3.71,0.25-7.43,0.557-11.164,0.762
		c-3.741,0.074-7.494,0.148-11.26,0.225c-1.883,0.037-3.768,0.074-5.655,0.113c-0.313,0-0.367,0.02-0.625,0.006l-0.715-0.02
		l-1.432-0.041l-2.864-0.084c-3.822-0.109-7.656-0.223-11.502-0.332l-1.443-0.041l-1.419-0.113l-2.842-0.229
		c-1.896-0.15-3.793-0.305-5.694-0.455c-7.604-0.434-15.244-1.637-22.927-2.604c-15.287-2.461-30.688-5.502-45.815-10.107
		c-1.897-0.547-3.8-1.094-5.702-1.641l-1.428-0.41l-1.408-0.479l-2.813-0.965c-3.755-1.285-7.52-2.574-11.291-3.865
		c-3.732-1.4-7.422-2.936-11.149-4.4c-1.858-0.742-3.72-1.484-5.583-2.229c-1.825-0.834-3.652-1.668-5.479-2.504
		c-29.388-13.076-57.313-30.666-82.61-51.959c-3.115-2.719-6.234-5.439-9.358-8.166l-1.17-1.023l-1.121-1.078l-2.244-2.156
		l-4.494-4.316c-1.492-1.447-3.015-2.865-4.485-4.336l-4.294-4.539l-4.301-4.543c-1.439-1.512-2.886-3.018-4.218-4.629
		c-2.725-3.168-5.451-6.34-8.182-9.516c-1.403-1.555-2.619-3.268-3.929-4.904l-3.869-4.961c-1.284-1.658-2.597-3.299-3.859-4.977
		l-3.634-5.152l-3.639-5.154l-1.821-2.58c-0.615-0.855-1.144-1.77-1.72-2.65c-2.261-3.555-4.523-7.113-6.788-10.676l-0.85-1.334
		l-0.785-1.375l-1.568-2.752l-3.14-5.508c-1.036-1.842-2.119-3.66-3.119-5.523l-2.872-5.662l-2.876-5.664l-1.438-2.834
		c-0.472-0.949-0.877-1.93-1.317-2.893c-1.732-3.869-3.466-7.742-5.201-11.617l-0.646-1.455l-0.577-1.482l-1.157-2.969l-2.315-5.938
		c-0.76-1.984-1.575-3.949-2.29-5.951l-2.021-6.051l-2.023-6.055l-1.013-3.025c-0.335-1.012-0.587-2.047-0.885-3.068
		c-1.148-4.1-2.297-8.203-3.446-12.307l-0.431-1.539l-0.359-1.559l-0.707-3.117l-1.415-6.236l-1.408-6.24l-1.101-6.305l-1.104-6.307
		c-0.348-2.104-0.794-4.193-1.005-6.32l-1.566-12.711c-0.122-1.063-0.283-2.117-0.372-3.182l-0.23-3.195l-0.462-6.391l-0.463-6.391
		c-0.1-1.063-0.117-2.131-0.135-3.199l-0.068-3.203l-0.28-12.677l0.385-13.004l0.096-3.251c0.027-1.086,0.055-2.172,0.162-3.217
		l0.514-6.334l0.509-6.332l0.253-3.166c0.098-1.057,0.268-2.115,0.397-3.172l1.667-12.688c0.227-2.122,0.689-4.206,1.054-6.306
		L397.154,628.456z M547.142,1095.82c-17.313,11.344-36.613,21.197-57.485,28.982l-1.949,0.756
		c-0.652,0.244-1.322,0.445-1.984,0.672c-1.326,0.439-2.655,0.881-3.988,1.322c-2.67,0.867-5.33,1.805-8.036,2.627
		c-2.729,0.756-5.465,1.516-8.213,2.277c-1.374,0.381-2.751,0.762-4.13,1.145c-1.39,0.344-2.795,0.637-4.194,0.957
		c-2.803,0.629-5.617,1.26-8.441,1.895c-1.404,0.35-2.845,0.539-4.273,0.801c-1.433,0.246-2.866,0.494-4.303,0.74
		c-1.436,0.248-2.875,0.496-4.315,0.744l-2.164,0.373l-2.184,0.264c-2.914,0.354-5.839,0.707-8.773,1.061
		c-2.926,0.42-5.891,0.559-8.858,0.775c-2.969,0.197-5.943,0.441-8.932,0.602c-2.993,0.059-5.996,0.113-9.009,0.172
		c-1.505,0.029-3.014,0.059-4.524,0.088c-0.25,0-0.294,0.014-0.5,0.004l-0.571-0.016l-1.145-0.033l-2.292-0.066
		c-3.058-0.088-6.126-0.178-9.202-0.266c-1.551-0.008-3.039-0.209-4.563-0.307c-1.518-0.121-3.035-0.242-4.557-0.365
		c-6.082-0.348-12.194-1.309-18.341-2.08c-12.229-1.973-24.549-4.404-36.653-8.086c-6.117-1.613-12.063-3.871-18.114-5.891
		c-2.985-1.119-5.939-2.348-8.919-3.52l-4.467-1.783l-4.385-2.002c-23.51-10.463-45.851-24.533-66.088-41.568
		c-2.492-2.174-4.987-4.352-7.486-6.531c-2.47-2.215-4.809-4.576-7.225-6.861c-1.194-1.156-2.412-2.291-3.588-3.469l-3.436-3.631
		l-3.44-3.637c-1.15-1.209-2.309-2.412-3.374-3.701c-2.179-2.533-4.36-5.07-6.545-7.611c-1.123-1.246-2.095-2.615-3.143-3.924
		l-3.096-3.971c-1.027-1.326-2.078-2.637-3.088-3.979l-2.907-4.123l-2.91-4.125c-0.977-1.371-1.956-2.744-2.833-4.184
		c-1.809-2.844-3.619-5.689-5.431-8.539c-0.942-1.404-1.704-2.916-2.563-4.371l-2.512-4.404c-0.829-1.475-1.695-2.928-2.495-4.42
		l-2.298-4.529l-2.301-4.531l-1.151-2.268c-0.378-0.758-0.701-1.543-1.055-2.314c-1.386-3.096-2.772-6.191-4.16-9.293
		c-1.342-3.119-2.497-6.318-3.758-9.475c-0.607-1.588-1.26-3.16-1.831-4.762l-1.617-4.842l-1.619-4.842l-0.811-2.422
		c-0.268-0.809-0.469-1.637-0.707-2.455l-2.757-9.844c-0.501-1.631-0.797-3.316-1.198-4.973l-1.132-4.99l-1.127-4.992l-0.88-5.043
		l-0.882-5.045c-0.279-1.684-0.636-3.355-0.805-5.057l-1.254-10.17c-0.097-0.848-0.227-1.693-0.297-2.545l-0.185-2.557l-0.369-5.111
		l-0.371-5.111c-0.142-1.703-0.102-3.416-0.163-5.123l-0.224-10.143l0.307-10.402c0.075-1.721,0.05-3.494,0.206-5.174l0.411-5.066
		l0.408-5.066l0.202-2.531c0.078-0.846,0.213-1.691,0.317-2.537l1.334-10.15c0.182-1.697,0.552-3.363,0.843-5.043l0.921-5.031
		l0.919-5.027l1.164-4.975l1.17-4.971c0.413-1.652,0.721-3.328,1.234-4.953l2.83-9.801c0.245-0.814,0.452-1.639,0.726-2.443
		l0.827-2.41l1.653-4.816l1.65-4.814c0.583-1.592,1.246-3.154,1.864-4.732c1.282-3.139,2.459-6.318,3.821-9.416
		c1.41-3.078,2.817-6.152,4.224-9.227c0.359-0.764,0.687-1.545,1.071-2.297l1.167-2.248l2.332-4.496l2.328-4.49
		c0.81-1.479,1.685-2.92,2.524-4.379l2.539-4.363c0.869-1.441,1.64-2.939,2.59-4.328c1.828-2.82,3.655-5.639,5.48-8.453
		c0.884-1.426,1.873-2.781,2.855-4.139l2.934-4.078l2.928-4.076c1.015-1.327,2.072-2.621,3.105-3.934l3.113-3.92
		c1.054-1.292,2.032-2.646,3.159-3.874c2.194-2.506,4.385-5.009,6.573-7.509c1.071-1.272,2.233-2.459,3.387-3.649l3.45-3.582
		l3.444-3.578c1.178-1.161,2.395-2.281,3.589-3.423c2.415-2.255,4.752-4.585,7.219-6.769c2.496-2.148,4.988-4.296,7.476-6.438
		c20.203-16.787,42.458-30.594,65.821-40.819l4.351-1.972l4.432-1.753c2.958-1.151,5.887-2.361,8.849-3.461
		c6.002-1.979,11.899-4.202,17.965-5.778c12.003-3.603,24.205-6,36.318-7.95c6.092-0.762,12.13-1.712,18.198-2.054
		c3.029-0.212,6.043-0.539,9.061-0.659c3.018-0.085,6.027-0.17,9.028-0.255l2.249-0.064l1.123-0.033l0.563-0.016
		c0.215-0.009,0.122,0,0.433,0.002c1.525,0.028,3.047,0.058,4.567,0.086c0.083,0.001,0.164,0.003,0.247,0.004
		c-0.333,1.02-0.589,2.06-0.89,3.088c-1.182,4.229-2.363,8.461-3.547,12.692l-0.442,1.587l-0.371,1.606l-0.729,3.215l-1.457,6.432
		l-1.445,6.437l-1.136,6.5l-1.134,6.502c-0.357,2.17-0.812,4.326-1.032,6.518l-1.609,13.106c-0.125,1.094-0.288,2.179-0.382,3.282
		l-0.239,3.317l-0.478,6.637l-0.473,6.637c-0.101,1.113-0.118,2.195-0.137,3.277l-0.068,3.251l-0.273,13.008l0.378,13.334
		l0.096,3.299c0.027,1.1,0.055,2.199,0.163,3.295l0.522,6.58l0.524,6.578l0.263,3.289c0.101,1.094,0.272,2.182,0.405,3.271
		l1.71,13.082c0.235,2.188,0.707,4.336,1.081,6.502l1.182,6.484l1.185,6.48l1.493,6.414l1.504,6.41l0.752,3.203l0.382,1.6
		l0.455,1.582c1.213,4.215,2.425,8.428,3.637,12.639c0.315,1.049,0.582,2.111,0.935,3.148l1.063,3.107l2.127,6.213l2.126,6.207
		c0.75,2.055,1.601,4.068,2.396,6.104l2.426,6.088l1.213,3.043l0.605,1.521l0.676,1.49c1.812,3.971,3.622,7.938,5.432,11.902
		c0.461,0.986,0.885,1.99,1.377,2.961l1.498,2.902l2.997,5.801l2.994,5.793c1.042,1.906,2.165,3.768,3.243,5.65l3.266,5.633
		l1.632,2.813l0.817,1.404l0.882,1.367c2.352,3.639,4.701,7.275,7.048,10.908c0.597,0.9,1.148,1.832,1.785,2.705l1.888,2.635
		l3.771,5.266l3.769,5.258c1.308,1.713,2.666,3.387,3.995,5.08l4.006,5.059c1.355,1.67,2.617,3.414,4.066,5
		c2.823,3.236,5.644,6.469,8.46,9.697c1.378,1.639,2.872,3.172,4.356,4.713l4.441,4.625l4.437,4.617
		c1.519,1.498,3.089,2.941,4.629,4.414l4.637,4.389l2.315,2.191l1.157,1.096l1.206,1.041c3.219,2.77,6.436,5.535,9.646,8.297
		c10.324,8.564,21.069,16.517,32.148,23.827c-0.022,0.308-0.051,0.616-0.071,0.923c-0.096,3.02-0.191,6.049-0.287,9.088
		c-0.05,1.518-0.098,3.041-0.146,4.564c-0.002,0.07-0.022,0.545-0.012,0.711l0.013,0.582l0.025,1.166l0.051,2.336
		c0.07,3.115,0.14,6.242,0.21,9.377c0.107,3.133,0.422,6.268,0.625,9.414c0.323,6.307,1.262,12.592,2.021,18.928
		c0.166,1.588,0.449,3.162,0.731,4.736c0.276,1.576,0.554,3.154,0.83,4.734c0.587,3.154,1.025,6.348,1.812,9.479
		c0.723,3.145,1.445,6.297,2.172,9.457c0.331,1.588,0.806,3.143,1.244,4.707c0.442,1.563,0.887,3.129,1.329,4.695
		c0.561,2.16,1.202,4.3,1.881,6.431C551.646,1092.813,549.414,1094.332,547.142,1095.82z M562.677,1081.759
		c-3.601-12.004-5.999-24.205-7.95-36.318c-0.761-6.092-1.712-12.131-2.053-18.199c-0.213-3.029-0.539-6.043-0.659-9.061
		c-0.086-3.018-0.171-6.027-0.256-9.027l-0.063-2.25l-0.032-1.123l-0.017-0.563c-0.011-0.215,0-0.121,0.002-0.432
		c0.028-1.525,0.058-3.047,0.086-4.568c0.023-1.227,0.046-2.446,0.069-3.67c13.708,8.387,27.878,15.8,42.385,22.131
		c1.875,0.84,3.749,1.678,5.621,2.516c1.91,0.748,3.818,1.494,5.724,2.24c3.82,1.471,7.604,3.012,11.428,4.412
		c0.502,0.168,1,0.335,1.502,0.502c-7.483,10.085-15.944,20.097-25.473,29.791c-8.954,9.071-18.834,17.874-29.62,26.136
		C563.129,1083.44,562.896,1082.601,562.677,1081.759z M1108.586,1018.361c-0.007,1.551-0.209,3.037-0.306,4.563
		c-0.121,1.516-0.243,3.033-0.365,4.555c-0.347,6.084-1.308,12.195-2.081,18.342c-1.97,12.23-4.402,24.549-8.086,36.652
		c-1.611,6.119-3.871,12.064-5.889,18.115c-1.12,2.984-2.348,5.939-3.521,8.918l-1.784,4.467l-2.002,4.387
		c-10.462,23.51-24.531,45.85-41.566,66.088c-2.175,2.492-4.352,4.986-6.533,7.484c-2.214,2.471-4.576,4.811-6.859,7.227
		c-1.157,1.191-2.293,2.412-3.471,3.588l-3.631,3.436l-3.635,3.439c-1.209,1.15-2.413,2.309-3.702,3.375
		c-2.534,2.178-5.071,4.359-7.612,6.545c-1.244,1.121-2.613,2.094-3.923,3.143l-3.969,3.096c-1.328,1.027-2.638,2.078-3.981,3.088
		l-4.122,2.906l-4.125,2.91c-1.372,0.977-2.743,1.957-4.184,2.834c-2.844,1.809-5.69,3.617-8.54,5.432
		c-1.403,0.941-2.915,1.703-4.37,2.563l-4.405,2.512c-1.474,0.828-2.928,1.693-4.419,2.494l-4.528,2.299l-4.531,2.301l-2.269,1.15
		c-0.757,0.379-1.543,0.701-2.313,1.055c-3.095,1.387-6.193,2.773-9.293,4.162c-3.12,1.342-6.319,2.496-9.477,3.756
		c-1.587,0.607-3.158,1.26-4.761,1.832l-4.841,1.617l-4.843,1.619l-2.422,0.811c-0.809,0.268-1.638,0.469-2.454,0.707l-9.847,2.758
		c-1.631,0.5-3.314,0.797-4.972,1.197l-4.989,1.133l-4.991,1.125l-5.045,0.881l-5.044,0.883c-1.684,0.279-3.355,0.635-5.057,0.803
		l-10.171,1.256c-0.848,0.098-1.693,0.227-2.544,0.299l-2.557,0.184l-5.111,0.369l-5.112,0.371
		c-1.703,0.141-3.416,0.102-5.123,0.162l-10.142,0.225l-10.403-0.307c-1.722-0.076-3.494-0.051-5.174-0.207l-5.067-0.41
		l-5.064-0.408l-2.532-0.203c-0.845-0.078-1.692-0.213-2.538-0.316l-10.149-1.334c-1.695-0.182-3.363-0.553-5.044-0.844l-5.029-0.92
		l-5.028-0.92l-4.975-1.164l-4.973-1.17c-1.649-0.412-3.328-0.721-4.952-1.232l-9.801-2.83c-0.813-0.244-1.638-0.451-2.443-0.725
		l-2.408-0.828L738.67,1268l-4.814-1.65c-1.592-0.584-3.154-1.246-4.732-1.865c-3.138-1.281-6.317-2.459-9.416-3.82
		c-3.078-1.41-6.154-2.816-9.228-4.225c-0.765-0.357-1.544-0.686-2.296-1.07l-2.249-1.166l-4.495-2.332l-4.489-2.328
		c-1.479-0.811-2.919-1.686-4.379-2.525l-4.365-2.539c-1.44-0.867-2.938-1.639-4.328-2.59c-2.819-1.828-5.638-3.654-8.452-5.479
		c-1.426-0.885-2.782-1.873-4.138-2.855l-4.079-2.934l-4.074-2.928c-1.328-1.016-2.622-2.072-3.934-3.105l-3.92-3.113
		c-1.292-1.055-2.645-2.031-3.873-3.16c-2.506-2.193-5.011-4.385-7.511-6.572c-1.271-1.07-2.458-2.232-3.648-3.387l-3.582-3.449
		l-3.577-3.445c-1.161-1.178-2.281-2.395-3.423-3.588c-2.254-2.414-4.586-4.752-6.769-7.219c-2.149-2.496-4.296-4.988-6.439-7.477
		c-16.786-20.203-30.592-42.459-40.818-65.82l-1.972-4.352l-1.753-4.432c-1.152-2.959-2.361-5.889-3.462-8.85
		c-1.385-4.2-2.885-8.35-4.203-12.541c11.092-8.716,21.196-17.991,30.313-27.51c9.61-10.035,18.07-20.391,25.543-30.774
		c2.81,0.939,5.619,1.878,8.42,2.815l2.883,0.963l1.44,0.479l1.463,0.41c1.946,0.545,3.894,1.09,5.837,1.635
		c15.486,4.588,31.23,7.584,46.846,9.98c7.852,0.932,15.615,2.094,23.479,2.488c1.958,0.143,3.913,0.283,5.865,0.424l2.926,0.211
		l1.461,0.104l1.443,0.031c3.846,0.084,7.682,0.166,11.504,0.25l2.865,0.061l1.432,0.031l0.716,0.016
		c0.219,0.012,0.641-0.006,0.805-0.01c1.924-0.059,3.844-0.117,5.761-0.176c3.834-0.119,7.655-0.234,11.465-0.352
		c3.801-0.248,7.587-0.6,11.36-0.893c3.772-0.318,7.541-0.541,11.26-1.115c3.729-0.496,7.443-0.986,11.145-1.477l2.772-0.367
		l2.747-0.506c1.83-0.336,3.656-0.672,5.479-1.008c1.821-0.334,3.642-0.67,5.457-1.004c1.813-0.354,3.639-0.615,5.421-1.08
		c3.58-0.85,7.146-1.695,10.698-2.537c1.774-0.434,3.554-0.828,5.313-1.287c1.746-0.508,3.489-1.016,5.227-1.523
		c3.479-1.012,6.941-2.021,10.391-3.027c3.423-1.092,6.785-2.322,10.158-3.471c1.684-0.582,3.362-1.164,5.039-1.744
		c0.836-0.297,1.682-0.564,2.506-0.885l2.461-0.99c26.367-10.188,50.567-23.143,72.226-37.811c1.39-0.865,2.68-1.867,4.006-2.809
		c1.176-0.851,2.348-1.698,3.519-2.544c9.558,5.092,19.568,9.756,30.045,13.827c21.225,8.359,44.322,14.09,68.424,17.035
		c2.993,0.467,6.074,0.654,9.145,0.916c3.068,0.242,6.172,0.527,9.244,0.73c3.021,0.096,6.049,0.191,9.088,0.287
		c1.52,0.049,3.041,0.098,4.565,0.145c0.07,0.002,0.544,0.023,0.711,0.014l0.583-0.014l1.166-0.025l2.335-0.051
		c3.116-0.07,6.241-0.141,9.376-0.211c3.134-0.105,6.268-0.422,9.415-0.625c3.582-0.183,7.157-0.567,10.738-1.002
		C1108.686,1014.925,1108.636,1016.638,1108.586,1018.361z M1097.133,1003.365c-3.029,0.213-6.043,0.539-9.06,0.658
		c-3.019,0.086-6.028,0.172-9.029,0.256l-2.249,0.064l-1.123,0.031l-0.562,0.018c-0.216,0.01-0.122,0-0.434-0.002
		c-1.524-0.029-3.046-0.059-4.566-0.088c-3.04-0.057-6.071-0.113-9.093-0.17c-2.957-0.162-5.855-0.4-8.774-0.594
		c-2.912-0.211-5.812-0.344-8.723-0.76c-2.905-0.352-5.802-0.699-8.688-1.047l-2.163-0.262l-2.143-0.369
		c-1.428-0.244-2.853-0.49-4.275-0.734s-2.844-0.488-4.262-0.732c-1.414-0.258-2.841-0.443-4.233-0.791
		c-2.799-0.621-5.588-1.238-8.365-1.854c-1.389-0.313-2.781-0.594-4.159-0.928c-1.367-0.373-2.733-0.746-4.096-1.117
		c-2.727-0.742-5.442-1.484-8.147-2.221c-2.686-0.801-5.325-1.719-7.975-2.566c-1.322-0.432-2.643-0.861-3.96-1.291
		c-0.656-0.221-1.321-0.418-1.97-0.658l-1.935-0.738c-8.833-3.259-17.367-6.904-25.621-10.848c0.196-0.147,0.399-0.289,0.594-0.438
		c2.501-1.996,4.987-3.982,7.459-5.959c2.451-2,4.985-3.869,7.289-5.99c9.475-8.166,18.405-16.52,26.594-25.16
		c16.469-17.197,30.305-35.146,41.856-52.908c9.387-14.437,17.261-28.758,23.742-42.671c1.229,1.778,2.451,3.569,3.647,5.396
		c11.344,17.314,21.199,36.613,28.984,57.486l0.755,1.949c0.245,0.652,0.446,1.322,0.672,1.984c0.439,1.326,0.881,2.656,1.322,3.988
		c0.868,2.67,1.805,5.33,2.627,8.037c0.756,2.727,1.515,5.463,2.276,8.213c0.382,1.373,0.764,2.75,1.146,4.129
		c0.343,1.389,0.635,2.793,0.956,4.193c0.629,2.803,1.261,5.617,1.894,8.441c0.353,1.404,0.539,2.846,0.802,4.273
		c0.247,1.434,0.493,2.867,0.741,4.303c0.246,1.436,0.494,2.875,0.743,4.316l0.373,2.164l0.265,2.184
		c0.353,2.914,0.706,5.838,1.06,8.771c0.42,2.928,0.56,5.893,0.776,8.859c0.197,2.969,0.438,5.943,0.601,8.932
		c0.059,2.994,0.114,5.996,0.172,9.01c0.013,0.673,0.026,1.35,0.039,2.024C1104.985,1002.667,1101.065,1003.143,1097.133,1003.365z
		 M1353.055,737.369c-0.075,1.723-0.051,3.494-0.207,5.174l-0.41,5.068l-0.408,5.064l-0.202,2.531
		c-0.078,0.846-0.213,1.691-0.317,2.539l-1.334,10.148c-0.182,1.697-0.552,3.363-0.843,5.043l-0.921,5.031l-0.919,5.027
		l-1.165,4.975l-1.169,4.973c-0.413,1.65-0.721,3.326-1.234,4.951l-2.829,9.801c-0.244,0.814-0.451,1.639-0.725,2.443l-0.828,2.41
		l-1.652,4.816l-1.651,4.814c-0.582,1.592-1.245,3.154-1.863,4.732c-1.282,3.139-2.459,6.318-3.821,9.416
		c-1.409,3.078-2.817,6.154-4.224,9.227c-0.358,0.766-0.687,1.545-1.071,2.297l-1.167,2.248l-2.332,4.496l-2.327,4.49
		c-0.811,1.479-1.686,2.92-2.524,4.379l-2.54,4.365c-0.868,1.439-1.639,2.939-2.589,4.328c-1.829,2.82-3.655,5.637-5.481,8.453
		c-0.884,1.426-1.872,2.779-2.854,4.137l-2.933,4.08l-2.928,4.074c-1.016,1.328-2.074,2.621-3.107,3.934l-3.111,3.92
		c-1.055,1.291-2.032,2.645-3.159,3.873c-2.194,2.506-4.385,5.01-6.574,7.51c-1.069,1.273-2.231,2.459-3.386,3.65l-3.45,3.582
		l-3.444,3.578c-1.178,1.16-2.395,2.279-3.589,3.422c-2.413,2.254-4.752,4.586-7.219,6.768c-2.497,2.15-4.989,4.297-7.477,6.439
		c-20.203,16.787-42.457,30.594-65.82,40.82l-4.351,1.971l-4.433,1.754c-2.958,1.152-5.887,2.361-8.849,3.461
		c-6.002,1.979-11.899,4.201-17.965,5.777c-12.003,3.602-24.205,6-36.319,7.951c-0.366,0.046-0.731,0.094-1.098,0.141
		c-0.015-0.471-0.029-0.941-0.044-1.412c-0.098-3.066-0.192-6.123-0.288-9.17c-0.202-3.041-0.485-6.068-0.722-9.088
		c-0.258-3.018-0.438-6.031-0.9-9.006c-0.398-2.982-0.793-5.953-1.188-8.914l-0.297-2.219l-0.405-2.195
		c-0.271-1.463-0.539-2.924-0.81-4.383c-0.271-1.457-0.539-2.912-0.807-4.363c-0.284-1.449-0.495-2.91-0.868-4.336
		c-0.679-2.863-1.355-5.717-2.029-8.559c-0.344-1.418-0.659-2.842-1.024-4.25c-0.405-1.395-0.811-2.789-1.215-4.182
		c-0.809-2.781-1.612-5.553-2.416-8.313c-0.87-2.738-1.852-5.43-2.767-8.129c-0.465-1.346-0.929-2.689-1.393-4.031
		c-0.236-0.67-0.449-1.346-0.707-2.006l-0.789-1.969c-8.12-21.105-18.502-40.459-30.231-57.787
		c-1.569-2.313-3.175-4.573-4.796-6.809c0.971-2.146,1.909-4.281,2.812-6.404c1.973-4.139,3.486-8.371,5.118-12.449
		c1.6-4.092,3.238-8.068,4.494-12.078c1.339-3.982,2.648-7.871,3.924-11.664c1.127-3.84,2.158-7.605,3.199-11.26
		c0.515-1.83,1.025-3.635,1.527-5.414c0.466-1.789,0.834-3.576,1.248-5.326c0.807-3.502,1.591-6.904,2.352-10.203
		c0.184-0.826,0.398-1.639,0.554-2.457c0.147-0.818,0.293-1.631,0.438-2.439c0.291-1.611,0.576-3.199,0.857-4.76
		c0.562-3.121,1.104-6.135,1.627-9.041c0.84-5.842,1.474-11.271,2.131-16.234c0.374-2.477,0.475-4.869,0.67-7.135
		c0.176-2.266,0.336-4.418,0.494-6.449c0.157-2.031,0.295-3.945,0.434-5.738c0.15-1.793,0.1-3.467,0.164-5.016
		c0.083-3.1,0.109-5.707,0.166-7.807c0.111-4.2,0.084-6.367,0.084-6.367v-0.011c0,0,0.041-2.172-0.048-6.38
		c-0.045-2.104-0.014-4.719-0.079-7.823c-0.055-1.551-0.017-3.231-0.158-5.023c-0.127-1.793-0.266-3.706-0.411-5.737
		c-0.146-2.032-0.302-4.184-0.464-6.45c-0.183-2.265-0.272-4.657-0.633-7.137c-0.627-4.97-1.213-10.408-2.009-16.265
		c-0.501-2.913-1.021-5.935-1.558-9.063c-0.27-1.564-0.543-3.155-0.821-4.773c-0.14-0.809-0.279-1.625-0.421-2.447
		c-0.15-0.819-0.357-1.635-0.535-2.464c-0.735-3.309-1.493-6.722-2.274-10.236c-0.398-1.755-0.755-3.549-1.208-5.346
		c-0.487-1.786-0.983-3.599-1.485-5.435c-1.015-3.671-2.018-7.453-3.117-11.31c-1.249-3.813-2.529-7.721-3.84-11.721
		c-1.229-4.032-2.838-8.03-4.41-12.146c-1.604-4.103-3.09-8.36-5.034-12.527c-7.058-16.978-16.236-34.726-27.691-52.671
		c-8.905-13.954-19.214-28.037-31.082-41.813c1.068-0.249,2.142-0.483,3.213-0.729c2.804-0.629,5.617-1.261,8.441-1.895
		c1.405-0.351,2.846-0.539,4.273-0.801c1.433-0.247,2.866-0.493,4.303-0.741c1.436-0.248,2.875-0.496,4.315-0.744l2.164-0.373
		l2.186-0.264c2.914-0.352,5.837-0.706,8.771-1.06c2.928-0.42,5.893-0.56,8.859-0.776c2.969-0.197,5.943-0.439,8.932-0.601
		c2.993-0.057,5.996-0.114,9.01-0.172c1.505-0.028,3.013-0.058,4.523-0.087c0.25,0,0.293-0.014,0.5-0.004l0.572,0.018l1.145,0.032
		l2.291,0.066c3.059,0.088,6.126,0.177,9.202,0.266c1.552,0.008,3.039,0.209,4.563,0.307c1.516,0.122,3.035,0.243,4.555,0.365
		c6.084,0.347,12.196,1.309,18.342,2.082c12.23,1.97,24.549,4.401,36.652,8.086c6.119,1.61,12.064,3.869,18.115,5.888
		c2.984,1.12,5.938,2.349,8.919,3.52l4.467,1.784l4.385,2.002c23.511,10.462,45.852,24.533,66.088,41.568
		c2.492,2.175,4.987,4.352,7.487,6.533c2.469,2.214,4.809,4.576,7.225,6.86c1.193,1.157,2.411,2.291,3.589,3.47l3.435,3.631
		l3.44,3.635c1.149,1.209,2.309,2.413,3.374,3.702c2.179,2.534,4.359,5.071,6.545,7.612c1.123,1.243,2.095,2.613,3.144,3.923
		l3.095,3.969c1.027,1.327,2.078,2.638,3.088,3.981l2.907,4.121l2.91,4.125c0.978,1.373,1.956,2.743,2.833,4.185
		c1.81,2.844,3.618,5.689,5.432,8.54c0.941,1.402,1.703,2.915,2.563,4.37l2.512,4.404c0.829,1.474,1.695,2.928,2.495,4.419
		l2.298,4.529l2.302,4.532l1.149,2.267c0.379,0.759,0.701,1.543,1.056,2.314c1.387,3.095,2.772,6.193,4.161,9.293
		c1.342,3.12,2.496,6.319,3.757,9.477c0.606,1.587,1.26,3.158,1.832,4.76l1.616,4.841l1.619,4.843l0.812,2.422
		c0.268,0.809,0.469,1.638,0.707,2.454l2.757,9.845c0.501,1.632,0.797,3.315,1.198,4.973l1.132,4.99l1.126,4.991l0.881,5.044
		l0.882,5.044c0.279,1.685,0.636,3.356,0.804,5.058l1.255,10.17c0.098,0.848,0.227,1.693,0.299,2.544l0.184,2.556l0.369,5.111
		l0.371,5.113c0.142,1.703,0.101,3.414,0.162,5.123l0.225,10.141L1353.055,737.369z"/>
</g>
</svg>
