<?xml version="1.0" encoding="utf-8"?>
<!-- Generator: Adobe Illustrator 16.0.0, SVG Export Plug-In . SVG Version: 6.00 Build 0)  -->
<!DOCTYPE svg PUBLIC "-//W3C//DTD SVG 1.1//EN" "http://www.w3.org/Graphics/SVG/1.1/DTD/svg11.dtd">
<svg version="1.1" id="Calque_1" xmlns="http://www.w3.org/2000/svg" xmlns:xlink="http://www.w3.org/1999/xlink" x="0px" y="0px"
	 width="300px" height="300px" viewBox="0 0 300 300" enable-background="new 0 0 300 300" xml:space="preserve">
<g>
	<path d="M144.61,231.537c0.408-11.374-10.266-13.834-18.059-15.629c-4.769-1.097-10.169-2.341-14.68-5.07
		c-1.654-1-3.136-1.992-4.46-2.957c5.347,2.492,11.41,5.044,17.451,6.309c12.493,2.619,26.66,5.579,32.434-5.249
		c2.749-5.152,1.3-10.942,0.138-15.597c-0.116-0.457-0.252-0.995-0.379-1.535c0.411-0.098,0.819-0.195,1.189-0.287
		c6.652-1.584,19.032-4.538,21.519-16.618c1.9-9.228-1.913-18.488-6.741-30.213c-2.954-7.174-6.304-15.303-9.32-25.406
		c-2.438-8.162-3.895-17.63-5.438-27.654c-3.411-22.16-7.276-47.276-23.059-71.691c-2.079-3.214-6.366-4.125-9.569-2.055
		c-3.208,2.075-4.127,6.359-2.054,9.569c14.177,21.93,17.805,45.494,21.005,66.283c1.616,10.509,3.144,20.435,5.854,29.509
		c3.217,10.771,6.857,19.612,9.785,26.716c4.081,9.909,7.03,17.072,5.984,22.154c-0.659,3.192-5.452,4.581-11.177,5.946
		c-4.623,1.103-8.612,2.055-10.815,5.728c-2.43,4.047-1.303,8.556-0.211,12.915c0.405,1.625,1.141,4.563,1.016,5.747
		c-1.235,0.598-5.298,0.711-17.329-1.809c-6.109-1.278-12.774-4.484-18.651-7.314c-9.263-4.451-17.264-8.304-22.373-2.057
		c-1.973,2.411-2.744,5.59-2.165,8.947c1.23,7.154,8.782,15.55,20.197,22.459c6.412,3.882,13.248,5.455,18.743,6.72
		c2.406,0.555,5.901,1.36,7.314,2.093c-0.167,2.714-0.924,3.743-2.365,5.692c-1.741,2.362-4.125,5.595-4.83,11.239
		c-0.357,2.854,0.349,5.957,1.167,9.553c1.235,5.436,2.776,12.201,0.065,16.394c-2.192,3.387-8.115,6.984-14.772,6.984
		c-21.086,0-46.398-4.981-88.452-41.126c-2.903-2.49-7.266-2.16-9.761,0.74c-2.49,2.897-2.16,7.266,0.738,9.758
		c45.476,39.081,73.723,44.468,97.475,44.468c10.636,0,21.24-5.35,26.39-13.307c5.882-9.091,3.433-19.856,1.811-26.982
		c-0.395-1.74-0.938-4.119-0.93-4.763c0.256-2.06,0.919-2.954,2.238-4.741C141.566,242.642,144.348,238.868,144.61,231.537z"/>
	<path d="M79.829,111.597c0.197,0.044,19.911,4.385,28.863,6.72c0.468,0.123,0.938,0.181,1.4,0.181c2.281,0,4.4-1.422,5.206-3.663
		c4.436-12.316,0.838-19.188-6.871-26.895c-1.806-1.803-4.606-2.145-6.798-0.811l-23.495,14.336c-1.93,1.178-2.949,3.41-2.576,5.638
		C75.931,109.333,77.621,111.112,79.829,111.597z M103.524,98.943c2,2.469,2.83,4.554,2.571,7.314
		c-3.301-0.799-7.015-1.664-10.515-2.467L103.524,98.943z"/>
	<path d="M183.461,113.764c0.381,0.08,9.455,1.965,16.661,1.965l4.85,0.034c0.011,0,0.021,0,0.032,0
		c5.568,0,15.889-0.015,18.084-8.062c1.016-3.732-0.163-8.18-3.233-12.199c-3.732-4.883-9.226-7.798-14.696-7.798
		c-7.217,0-16.643,5.491-21.587,10.798c-3.222,3.461-4.735,6.905-4.497,10.236C179.25,111.205,181.039,113.255,183.461,113.764z
		 M205.158,98.775c1.673,0,3.53,0.918,5.093,2.52c1.078,1.104,1.656,2.173,1.935,2.838c-1.013,0.268-3.07,0.559-7.214,0.559
		l-4.85-0.034c-2.035,0-4.322-0.194-6.463-0.453C197.006,101.506,201.944,98.775,205.158,98.775z"/>
	<path d="M195.235,215.06c-0.07,0.046-7.25,4.466-16.367,4.466c-9.055,0-13.896-2.232-14.142-2.352
		c-3.354-1.72-7.499-0.433-9.271,2.919c-1.79,3.379-0.5,7.566,2.876,9.353c0.757,0.403,7.771,3.92,20.537,3.92
		c13.291,0,23.376-6.358,23.798-6.628c3.206-2.052,4.136-6.299,2.103-9.515C202.73,214,198.46,213.049,195.235,215.06z"/>
	<path d="M284.443,88.347c-5.173-5.176-11.585-6.611-17.199-6.382c0.065-18.01-1.173-57.158-12.553-72.732
		c-2.254-3.085-6.588-3.76-9.669-1.504c-3.087,2.256-3.76,6.585-1.506,9.67c9.615,13.157,10.294,57.034,9.745,72.831
		c-0.084,2.372,1.054,4.621,3.017,5.959c1.962,1.336,4.468,1.574,6.646,0.634c0.075-0.034,7.393-3.023,11.733,1.31
		c1.514,1.514-1.199,9.258-2.821,13.884c-2.222,6.34-4.741,13.524-4.741,20.666c0,4.745,0.381,9.358,0.719,13.429
		c0.613,7.406,1.192,14.402-1.032,17.321c-0.598,0.784-1.157,1.524-2.943,0.2c-2.038-1.651-4.836-2.009-7.226-0.916
		c-2.387,1.089-3.952,3.436-4.044,6.058c-0.019,0.486-1.925,49.13-20.454,79.686c-13.137,21.667-31.866,32.652-55.669,32.652
		c-11.964,0-18.432-3.433-18.686-3.573c-3.284-1.887-7.482-0.801-9.415,2.476c-1.943,3.29-0.854,7.531,2.438,9.478
		c0.946,0.557,9.702,5.46,25.663,5.46c28.565,0,51.906-13.597,67.503-39.313c15.545-25.636,20.39-61.056,21.849-77.458
		c0.53-0.006,1.07-0.038,1.622-0.103c2.813-0.341,6.898-1.698,10.369-6.255c5.449-7.152,4.657-16.722,3.816-26.854
		c-0.33-3.988-0.67-8.113-0.67-12.287c0-4.786,2.014-10.531,3.962-16.088C288.276,106.946,292.109,96.013,284.443,88.347z"/>
</g>
</svg>
