<?xml version="1.0" encoding="utf-8"?>
<!-- Generator: Adobe Illustrator 16.0.0, SVG Export Plug-In . SVG Version: 6.00 Build 0)  -->
<!DOCTYPE svg PUBLIC "-//W3C//DTD SVG 1.1//EN" "http://www.w3.org/Graphics/SVG/1.1/DTD/svg11.dtd">
<svg version="1.1" id="Calque_1" xmlns="http://www.w3.org/2000/svg" xmlns:xlink="http://www.w3.org/1999/xlink" x="0px" y="0px"
	 width="300px" height="300px" viewBox="0 0 300 300" enable-background="new 0 0 300 300" xml:space="preserve">
<g>
	<path d="M139.897,271.823c-41.127,0-74.587-33.459-74.587-74.586c0-32.384,20.755-60,49.654-70.285v-18.839
		C76,119.029,47.333,154.837,47.333,197.237c0,51.039,41.523,92.564,92.564,92.564c39.865,0,73.925-25.333,86.926-60.746
		l-15.665-9.793C201.741,249.674,173.36,271.823,139.897,271.823z"/>
	<path d="M271.046,209.853l-60.723-59.326h-34.148v-27.447h35.954c4.965,0,8.989-4.023,8.989-8.988c0-4.964-4.024-8.989-8.989-8.989
		h-35.954V92.474c0-13.474-10.924-24.398-24.4-24.398c-13.475,0-24.397,10.924-24.397,24.398v91.44h31.842h16.955h20.545
		l50.995,49.82c3.245,3.177,7.458,4.755,11.666,4.755c4.336,0,8.67-1.68,11.939-5.027
		C277.765,226.867,277.642,216.299,271.046,209.853z"/>
	<circle cx="151.774" cy="37.044" r="24.398"/>
</g>
</svg>
