<?xml version="1.0" encoding="utf-8"?>
<!-- Generator: Adobe Illustrator 16.0.0, SVG Export Plug-In . SVG Version: 6.00 Build 0)  -->
<!DOCTYPE svg PUBLIC "-//W3C//DTD SVG 1.1//EN" "http://www.w3.org/Graphics/SVG/1.1/DTD/svg11.dtd">
<svg version="1.1" id="logo" xmlns="http://www.w3.org/2000/svg" xmlns:xlink="http://www.w3.org/1999/xlink" x="0px" y="0px"
	 width="600px" height="600px" viewBox="0 0 600 600" enable-background="new 0 0 600 600" xml:space="preserve">
<path id="fond" fill="#993399" d="M299.998,0C134.318,0,0,134.313,0,299.999C0,465.685,134.318,600,299.998,600
	C465.695,600,600,465.685,600,299.999C600,134.313,465.695,0,299.998,0z M410.43,241.937c0.094,2.483,0.143,5.031,0.143,7.569
	c0,77.197-57.285,166.186-162.081,166.186c-32.161,0-62.12-9.669-87.324-26.21c4.451,0.521,8.997,0.79,13.589,0.79
	c26.683,0,51.255-9.331,70.748-25.017c-24.93-0.443-45.953-17.342-53.21-40.54c3.465,0.685,7.056,1.034,10.721,1.034
	c5.205,0,10.128-0.685,14.904-2.055c-26.079-5.351-45.837-28.968-45.837-57.278v-0.719c8,4.348,16.602,7.007,25.94,7.288
	c-15.302-10.473-25.289-28.363-25.289-48.616c0-10.695,2.819-20.738,7.735-29.4c28.111,35.39,70.083,58.617,117.444,61.055
	c-0.986-4.278-1.475-8.72-1.475-13.299c0-32.268,25.515-58.416,56.947-58.416c16.406,0,31.209,7.081,41.59,18.426
	c12.988-2.599,25.163-7.458,36.196-14.145c-4.258,13.635-13.286,25.084-25.05,32.305c11.527-1.406,22.51-4.55,32.713-9.195
	C431.211,223.415,421.559,233.701,410.43,241.937z"/>
</svg>
